<?xml version="1.0" encoding="utf-8"?>
<!-- Generator: Adobe Illustrator 18.1.0, SVG Export Plug-In . SVG Version: 6.00 Build 0)  -->
<!DOCTYPE svg PUBLIC "-//W3C//DTD SVG 1.1//EN" "http://www.w3.org/Graphics/SVG/1.1/DTD/svg11.dtd">
<svg version="1.1" id="Layer_1" xmlns="http://www.w3.org/2000/svg" xmlns:xlink="http://www.w3.org/1999/xlink" x="0px" y="0px"
	 viewBox="0 0 700 1200" enable-background="new 0 0 700 1200" xml:space="preserve">
<path fill="#F5F5F5" d="M695.3,12.8l4.2,3.9V0.5h-700v1127.3l35.4-13.1l37.5-24.2l6.8-7.7l3-16l7.7-14.8l21.5-26.8l25.3-43.8
	l3.9-9.5l0.2-10.2l-2.1-27.5l-1.3-3.3l-2.3-3.7l-13.1,0.4l-9.8-4.9l-13.1-13.5l-5-10.4l-2.7-11l1.4-15.9l13.7-18.8l-0.8-12.5
	l-9.3-15.3l-17.1-14.6l-15-10.8l-36.4-18.3l-9.4-13.2l-3.4-6.4l-4.2-14l3.6-2.9l2.7-0.8l3.1-5.1l-1.1-11.4l-1.4-6l-2-7.9l-5.2-12.5
	l-1.1-7.7l6.4-32.2l2.1-14.8l3.4-3.4l4.7,0.9l4.2-0.3l3.4-5.4l2.1-4.8l-3.4-33.6l1.3-7.8l2.7,8.1l2.3,16.1l3.2,11.5l-0.7,6.2
	l-4.2,8.4l-4.8,5.5l-5,0.7l-4.8,3.7L23,659l-4,21.3l-2,17.9l2.8,16.6l13.3,17l17.3,17.1l4.2,7.1l2,4.9l3,2.6l20-2.4l25.9,0.3
	l22.1,19.4l27.4,8.6l5.3,7.4l9.7,3.5l3.7,0.5l5.5,0.2l17.7-8.4l13.2-3.1l21.3,2.8l9.2,7.7l10-0.1l13.6,3.3l37.4-17.5l6.6-5.6
	l7.3,0.3l10.9-13.3l15.8-11.9l2.9-11.3l14.5-19.9l4.3-14.5l3.7-5.9l3.4-3.3l5.8-5.4l-7.3,5l-1.8,0.1l-0.6-0.6l-0.5-1.4l-0.7-1.4
	c0-0.1-0.1-0.2-0.2-0.2l-1.1-0.8c-0.1-0.1-0.2-0.1-0.4-0.1l-1.3,0l-1.1,0.2H361l-1.7-2.9l0.2-7.2l1.6-13.9l-1.5-12.4l-0.1-6l1.7-5.7
	l1.8-2.5l2.3-2l8.5-5.7c0,0,0.1-0.1,0.1-0.1l0.8-0.9c0.1-0.1,0.1-0.1,0.1-0.2l0.5-1.7l0.2-3l0.5-1.3l1.8-1.9l4.7-3.4
	c0,0,0.1-0.1,0.1-0.1l2.7-3.5l2.5-2c0,0,0.1-0.1,0.1-0.1l0.9-1.2c0.1-0.1,0.1-0.2,0.1-0.3l0.2-1.5c0-0.1,0-0.3-0.1-0.4l-0.6-1.2
	c0,0-0.1-0.1-0.1-0.1l-4.7-5.1l-1.2-0.8l-2.2-1l-2.3-1.4c-0.1-0.1-0.2-0.1-0.3-0.1l-2.2,0l-1-0.3l-3.1-1.9l-3.8-1.3l-4.1-4.6l-4.3-3
	l-1.6-1.6l-1.4-1.9l-1.2-2.2l-0.8-1.1l-1.7-1.5l-0.5-0.9l-0.3-1.2l-0.2-4.2l-0.5-2.9l-0.9-2.4l-3.5-5.1l-2-4.7l-0.1-2.8
	c0-0.1,0-0.1,0-0.2l-0.4-1.1c0-0.1-0.1-0.2-0.3-0.3l-1-0.6c-0.1,0-0.1-0.1-0.2-0.1l-4-0.8l-1.8-1.1l-0.8-0.7l-0.7-0.8l-0.3-0.7
	l-0.2-0.9l-0.3-0.8c0-0.1-0.1-0.2-0.1-0.2l-0.9-1l-2.1-1.4l-1.1-0.5l-1.3-0.4l-2.2-0.2l-0.5-0.2l-0.5-0.4l-0.6-1.2l-0.4-0.6
	c0,0-0.1-0.1-0.1-0.1l-1.3-1l-1.3-0.6c-0.1,0-0.1,0-0.2,0l-1.4-0.1c-0.1,0-0.2,0-0.3,0l-1.3,0.5c-0.1,0-0.2,0.1-0.2,0.1l-1.3,1.3
	l-0.5,0.6l-0.3,0l-1.4-1l-3.5-3.3l-3.8-2.7l-4.8-4.4l-2.2-2.5l-2.2-2l-2.2-1.6l-1.8-1.7l-0.9-2.2l-0.1-3.3l-0.3-1.4
	c0-0.1,0-0.1-0.1-0.2l-0.9-1.6l-1.1-1.1l-3.6-2.9l-0.7-0.9l-1.2-2.6c0-0.1-0.1-0.1-0.1-0.2l-0.9-0.9c-0.1-0.1-0.2-0.1-0.3-0.1
	l-1.1-0.3c-0.1,0-0.1,0.1-0.2,0.1c0,0,0,0,0,0l-2.3-0.1l-11.4-1.8l-2-0.8l-0.8-0.5l-0.8-0.8l-0.9-1.1l-0.9-0.9
	c-0.1-0.1-0.1-0.1-0.2-0.1L261,504l-1.9-1.9l-1.8-2.3l-1.2-2l-1.3-1.5c-0.2-0.2-0.5-0.3-0.7-0.2l-0.9,0.3c-0.2,0.1-0.3,0.2-0.4,0.3
	l-1.3,2.5l-0.8,1.2l-0.6,0.3l-0.7-0.1l-1.2-0.7l-3.4-3.1l-1.4-0.9l-2.6-1l-1.1-0.7l-1-1.1l-0.5-1.3l-0.9-3.4c0-0.1,0-0.1-0.1-0.2
	l-0.8-1.3c0-0.1-0.1-0.1-0.2-0.2l-2.2-1.4l-0.7-0.7l-0.4-1.1l-0.3-3l-0.4-1.3c0-0.1,0-0.1-0.1-0.2l-1.1-1.6l-5.2-5.9l-3.2-2.8
	l-1.6-2l-1.2-1l-2.5-1.4l-1.9-2.2c-0.1-0.1-0.2-0.2-0.3-0.2l-1.5-0.4c-0.1,0-0.2,0-0.3,0l-1.5,0.3c-0.1,0-0.2,0.1-0.3,0.2l-1.1,1.1
	c-0.1,0.1-0.1,0.2-0.2,0.3l-0.3,1.4c0,0.1,0,0.1,0,0.2l0.2,3.2l-0.1,1.3l-0.5,0.5l-1.2-0.1l-1.7-0.4c-0.1,0-0.1,0-0.2,0l-1.3,0.2
	c-0.2,0-0.3,0.1-0.4,0.2l-0.9,1.1c-0.1,0.1-0.1,0.2-0.1,0.2l-0.7,2.7l-0.5,1.1l-0.8,0.8l-3.8,2.5c-0.1,0-0.1,0.1-0.1,0.1l-1,1.4
	l-0.4,0.3l-0.4,0.1l-1.8,0l-2.1,0.4l-4.6-0.3l-1.4,0.2l-0.4-0.7l0-1.5l0.4-3.8l0-5.2l0.3-1.6l1.2-2.1c0-0.1,0.1-0.1,0.1-0.2l0.3-2.4
	c0-0.1,0-0.1,0-0.2l-0.4-2.4c0-0.1,0-0.1-0.1-0.2l-1.1-2.2c0-0.1-0.1-0.1-0.2-0.2l-4.5-3.6l-1-1.2l-2.4-4.6l-0.5-0.8l-0.7-0.7
	l-1.3-0.8l-0.7-0.6l-0.2-0.5l-0.2-1l-0.4-0.9c0-0.1-0.1-0.1-0.1-0.1l-2.3-2.7l-1.4-1.3c0,0-0.1-0.1-0.2-0.1l-2.2-1.1l-4.2-3.5
	l-3.1-1.7l-0.8-0.7l-1-1.3l-1.8-3l-1.3-1.3l-3.6-2.3l-1.2-1.1l-0.8-0.6l-2.5-2.9l-0.7-1.1l-0.4-0.4c0-0.1-0.1-0.1-0.1-0.1l-0.8-0.5
	c-0.1,0-0.2-0.1-0.3-0.1l-0.8-0.1l-0.6,0l-0.5-0.1l-0.8-0.5l0-0.1l0.2-0.7c0-0.1,0-0.2,0-0.2l-0.2-1.6c0-0.1,0-0.2-0.1-0.2l-0.6-1.1
	c0,0-0.1-0.1-0.1-0.1l-1.1-1.1l-1.3-0.9l-2.1-1l-4.3-2.9l-0.6-0.7l-1.3-2.2c0-0.1-0.1-0.1-0.2-0.2l-2.5-1.7
	c-0.1-0.1-0.2-0.1-0.4-0.1l-2.7,0.1l-2.5,0.4l-3.2-0.9c-0.1,0-0.1,0-0.2,0l-1.5,0.1l-2.7,0.5l-1.8,0.9l-0.4,0l-1.2-0.6
	c-0.1,0-0.1-0.1-0.2-0.1l-0.7-0.1c-0.1,0-0.3,0-0.4,0.1l-1.8,1.2c0,0-0.1,0.1-0.1,0.1l-2,2.4l-1.5,2.6c0,0,0,0.1-0.1,0.2l-0.5,2.1
	l-0.4,2.4l-1.3,2.1l-1.8,1.4l-1.9,0.4l-0.9-0.9c0-0.1-0.1-0.1-0.2-0.1l-0.6-0.3c-0.2-0.1-0.4-0.1-0.6,0L97,416
	c-0.1,0-0.1,0.1-0.2,0.2L96,417l-0.2,0.1l-0.7-0.3l-0.8-0.7l-0.9-0.6c-0.1-0.1-0.2-0.1-0.3-0.1l-1.4-0.1c-0.1,0-0.2,0-0.3,0.1
	l-0.9,0.4c-0.1,0-0.1,0.1-0.1,0.1l-1.5,1.4l-0.4,0.2l-0.6-0.2l-0.9-1.4c-0.1-0.1-0.1-0.2-0.2-0.2l-0.9-0.5c-0.1,0-0.2-0.1-0.3-0.1
	l-1.8,0l-3,0.5l-1.5-0.1l-1.9-1.3l-1.3-4c0-0.1-0.1-0.2-0.2-0.3l-0.9-0.8L77,409l1.5-0.6l3-2.1c0,0,0.1-0.1,0.1-0.1l6.5-8.3l4.6-2.4
	c0.1-0.1,1.6-2.5,1.7-2.6l0.4-1.2c0-0.1,0-0.1,0-0.2l0.9-9l1.6-2l2.2-1.9l3.1-1.5l1.4-0.5l3.1-0.1c0.1,0,0.1,0,0.2,0l1.4-0.5
	c0.1,0,0.1-0.1,0.2-0.1l1.4-1.2l5.2-5.6l0.6-0.9l0.3-0.7l2-2.1c0.1-0.1,0.1-0.1,0.1-0.2l0.9-2.6l0.8-1l2.8-2.3l0.6-0.7
	c0,0,0.1-0.1,0.1-0.1l0.4-1l5.3-3.3c0.1-0.1,2.2-0.9,1.5-1.5l1.3-0.9l0.1-0.7l0.3-0.9l0.5-0.7l-0.5-0.6c0.2-0.1,0.3-0.3,0.3-0.5
	l0.1-0.8l0-0.8l0.1-0.7l0.6-0.3l0.4-0.4l0.6-0.4l2.6-1.3l1-0.7l1.3-1.2l0.9-1.4l1.1-3.3l-0.1-2.3c0.1-0.2,0.1-0.4,0-0.5l0.4-0.9
	l0.1-0.9l0.3-0.2l0.4-1l1-2.7l2.2-3l2.4-1.7l2.3-1.2l5.6-2c0.1,0,0.1,0,0.2-0.1l1.1-0.7c0.1,0,0.2-0.1,0.2-0.2l0.9-1.5
	c0-0.1,0.1-0.1,0.1-0.2l0.3-1.6l0.1-3.1l1.2-2l3.9-2c0.1-0.1,0.2-0.1,0.2-0.2l1.5-2.8c0-0.1,0.1-0.2,0.1-0.3l1.2-6.7l0.5-0.9
	l1.1-0.5l3.3-0.6c0.1,0,0.2,0,0.2-0.1l2.4-1.6c0.1,0,0.1-0.1,0.2-0.1l6.4-8.3l4.3-3c0.1,0,0.1-0.1,0.1-0.1l1.3-1.8
	c0.1-0.1,0.1-0.2,0.1-0.4l0.1-3.2l-0.2-1.3l0.1-1.3l0.5-0.7l1.4-0.6l1.8-0.9l2.3-0.3l0.6-0.2c0,0,0.1,0,0.1-0.1l0.6-0.4
	c0,0,0.1-0.1,0.1-0.1l0.3-0.4c0.1-0.1,0.1-0.2,0.1-0.3l0.1-0.7l0-3.7c0-0.1,0-0.2,0-0.2l-0.2-0.6l-0.3-1.3l0.9-0.8l2.1-1.2l2,0.5
	l2.8,0.3l2.3,0.6l0.9,1.2l0.2,1.4c0,0.2,0.2,0.4,0.4,0.5l0.6,0.3c0.2,0.1,0.4,0.1,0.6-0.1l0.8-0.6c0,0,0.1-0.1,0.1-0.1l0.8-1.1
	l0.5-1.2l1-3.7c0-0.1,0-0.3,0-0.4l-1.8-2.1l-0.7-0.9c-0.1-0.1-0.2-0.2-0.3-0.2l-1.1-0.4L206,257l-1.9-1.2l-0.7-0.5l-0.3-0.6l1.3-1
	l4.4-1.5c0.1,0,0.2-0.1,0.2-0.1l2.9-2.8l0.8-0.5l0.6-0.7c0-0.1,0.1-0.1,0.1-0.2c0,0,0.1-0.1,0.1-0.2l0.4-1.1l0.5-0.6l0.9-0.6l0,0.1
	l0,0.5c0,0.1,0,0.1,0,0.2l0.2,0.6c0.1,0.2,0.2,0.4,0.4,0.5l0.9,1c0.1,0,0.2,0,0.3,0l0.8-0.2c0.2,0,0.3-0.1,0.4-0.3l0.3-0.4
	c0-0.1,0.1-0.1,0.1-0.2l0.1-0.5l0.2-0.5l1.2-1l0.3-0.3c0.1-0.1,0.1-0.1,0.2-0.2l0.7-1.7l0.2-0.2l0.5-0.2l0.2,0.4
	c0.1,0.1,0.1,0.2,0.2,0.2l0.5,0.3c0.1,0.1,0.3,0.1,0.4,0.1l0.8-0.1l1.7-0.5c0.1,0,0.3-0.1,0.4-0.3l0.3-0.6l3.2-3.8l0.5-0.9l0.1-0.4
	c0-0.1,0-0.1,0-0.2l-0.1-2.3l0.1-0.5l0.1-0.1l0.9-0.1c0.1,0,0.1,0,0.2,0l1.5-0.6c0.2-0.1,0.3-0.2,0.4-0.4l0.4-1.4l0.2-1.2l0.8-0.7
	l0.5,0l1.4,0.5l0.8,0.1c0.1,0,0.2,0,0.3,0l0.7-0.2c0.1,0,0.1-0.1,0.2-0.1l2.5-2c0.1,0,0.1-0.1,0.1-0.2l0.8-1.3l0.9-1.2l1-0.4
	l0.8,0.3l1.4,1.3c0.1,0.1,0.2,0.1,0.3,0.2l1.4,0.3c0.3,0.1,0.7-0.1,0.8-0.5l0.5-2.1l0.1-0.2l0.2-0.1l1.4,0c0.1,0,0.2,0,0.2,0
	l0.4-0.2l1.2,0.8c0.1,0.1,0.2,0.2,0.3,0.2h1.1c0.3,0,0.5-0.3,0.6-0.6l0.3-1c0.1-0.2,0-0.4-0.1-0.5l-1-1.6c0,0-0.1-0.1-0.1-0.1
	l-2.1-1.9l-0.3-0.6l0.4-0.2l1.1,0.2l1.2,0.6l1.3,0.4c0.1,0,0.2,0.1,0.3,0l1.7-0.2c0.1,0,0.2-0.1,0.3-0.2l3.6-1.3l1.2-2.4
	c0.1,0,0.2-0.1,0.3-0.3l0.4-0.8c0-0.1,0.1-0.1,0.1-0.2l0.4-1.8l0.4-3.5l-0.1-2.5l0.1,0l1.6,0c0,0,0.2,0,0.3-0.1l1.4-0.7
	c0.1-0.1,0.3-0.2,0.3-0.4l0.6-1.8l1-1.1l0.4-1.4l0.4-0.5l0.9-0.7l0.3-0.1l0.1,0.1l-0.3,0.6l-0.1,0.4c-0.1,0.3,0,0.6,0.3,0.7l0.6,0.6
	l0.1,0.2c0.1,0.1,0.2,0.3,0.4,0.3l0.4,0.1c0.1,0,0.2,0,0.4,0l2.1-1.7l1.3,0l1.6,0.2c0.1,0,0.1,0,0.2,0l0.7-0.1c0.1,0,0.1,0,0.2-0.1
	l0.6-0.4c0.1,0,0.1-0.1,0.2-0.2l0.3-0.4c0.1-0.1,0.1-0.2,0.1-0.3l0.1-0.7l0-1l0.2-0.6l0.1-0.1l0.3,1.2c0.1,0.3,0.3,0.5,0.6,0.5
	l0.8,0.1c0.2,0,0.4-0.1,0.5-0.2l1-0.9c0.1,0,0.1-0.1,0.1-0.2l0.8-1.6l0.4-1.4l0.3-0.7l0.4-0.6l0.4-0.3l0,0l-0.1,0.2l0.7,1.5l0.3,0.4
	c0.1,0.1,0.2,0.2,0.3,0.2l0.7,0.3c0.1,0,0.1,0,0.2,0l0.7,0c0.1,0,0.1,0,0.2,0l4.5-1.3c0.1,0,0.1,0,0.2-0.1l1.4-0.9
	c0.2-0.1,0.3-0.3,0.3-0.5l0-1c0-0.1,0-0.3-0.1-0.4l-1-1.5l0.1-0.2l0.7-0.2l2.7-0.1l0.8,0.2l0.5,0.6l0.3,1.8l0.2,0.7
	c0.1,0.3,0.4,0.5,0.7,0.4l0.6-0.1c0.1,0,0.2-0.1,0.3-0.1l0.6-0.6c0.1,0,0.1-0.1,0.1-0.2l0.5-0.8c0-0.1,0.1-0.1,0.1-0.2l0.1-0.8
	l0-0.9l0.8,0.9l1,0.8c0.1,0.1,0.2,0.3,0.4,0.3c0,0,0,0,0,0l1.4-0.2c0.2,0,0.3-0.2,0.4-0.3l0.4-0.4l0.5-0.7l0.5-0.9l0.2-0.6l0.2-0.5
	l0.3-0.1l0.8-0.1c0.1,0,0.1,0,0.2-0.1l0.5-0.3c0.2-0.1,0.3-0.2,0.3-0.4l0.1-0.7c0-0.1,0-0.1,0-0.2l-0.1-1.5l0.2-0.4l0.4-0.5l0.3-0.7
	l1.9-5.2l0.5-0.8l0.6,0.5l-0.1,1.4c0,0.3,0.1,0.6,0.4,0.7l2.1,0.7c0.1,0,0.2,0.1,0.3,0l2.5-0.3c0.2,0,0.3-0.1,0.4-0.2l5.1-5.7
	c0.1-0.1,0.1-0.1,0.1-0.2l0.5-1.3l0.2-0.2l0.1,0l0.3,0.3c0.1,0.1,0.2,0.1,0.3,0.1l0.5,0.1c0.1,0,0.2,0,0.3,0l1.4-0.3
	c0.3-0.1,0.5-0.3,0.5-0.6l0-0.8c0-0.1,0-0.2,0-0.2l-0.3-0.9l0.1-0.6l0.3-0.2l1.4,1.2c0.1,0.1,0.2,0.1,0.3,0.2l1.1,0.2
	c0.2,0,0.4,0,0.6-0.2l0.7-0.8c0.1-0.1,0.1-0.2,0.1-0.3l0.6-2.3l0.1-0.1l0.4,0.2l0.6,1l0.6,1.3c0,0.1,0.1,0.1,0.1,0.2l0.3,0.3l0,0.2
	c0.1,0.3,0.4,0.5,0.7,0.5l0.7-0.1c0.1,0,0.1,0,0.2-0.1l0.6-0.4l0.4-0.3l0.5-0.2l1.3-0.4l0.2,0l0.4,0.4l0.2,0.5l0.1,0.6
	c0,0.1,0,0.1,0.1,0.2l0.3,0.4c0.1,0.1,0.2,0.2,0.4,0.3l0.7,0.2c0,0,0.1,0,0.2,0l1-0.1l0.6-0.1c0.1,0,0.1,0,0.2-0.1l1.6-0.9
	c0.1,0,0.1-0.1,0.1-0.1l0.7-0.7l0.3-0.2l0.2,0l0.8,0.6l0.4,1.3l0.1,2.3c0,0.2,0.1,0.4,0.3,0.5c0.2,0.1,0.4,0.1,0.5,0.1l1.5-0.4
	c0.1,0,0.2-0.1,0.3-0.2l1.7-2l1-0.6l1.3,0.2l3.3,1.3c0.1,0,0.3,0,0.4,0l1.1-0.3c0.2-0.1,0.4-0.2,0.5-0.5l0.3-1.4c0-0.1,0-0.1,0-0.2
	l-0.2-1.8l0-1.5l0.6-0.6l0.2,0l0.4,0.5l0.4,0.8c0,0.1,0.1,0.1,0.1,0.2l0.4,0.4c0.2,0.1,0.4,0.2,0.6,0.1l0.6-0.2c0.1,0,0.1,0,0.2-0.1
	l1-0.6l0.7-0.2l1.3-0.5c0.1,0,0.2-0.1,0.2-0.2l1.1-1.3l1-1.9l2.1,1.5c0,0,0.1,0,0.1,0.1l1.4,0.5c0.1,0,0.1,0,0.2,0l1.5,0.2l0.2,0.5
	l-0.7,2l-1.8,3.6c-0.1,0.2-0.1,0.4,0,0.6c0.1,0.2,0.3,0.3,0.5,0.3l1.7,0.2c0.2,0.1,0.3,0,0.4-0.1l3.2-2.2l1.5-0.5l0.6,0.2l1.3,1.1
	c0.1,0,0.1,0.1,0.2,0.1l0.6,0.2c0.2,0.1,0.4,0,0.6-0.1l0.8-0.6c0.1-0.1,0.2-0.1,0.2-0.2l0.5-1.1l0.3-1.2l1,1
	c0.1,0.1,0.1,0.1,0.2,0.1l1.1,0.5c0.1,0.1,0.2,0.1,0.4,0.1l1.5-0.2c0.1,0,0.2,0,0.3-0.1l1.3-0.8c0.1-0.1,0.2-0.2,0.2-0.3l0.5-1.1
	c0-0.1,0-0.1,0-0.2l-0.6-1.2l0.4-1.4l0.8-0.8l1.1-0.2l0.5,0.2l-1,1.3l-0.4,0.8c0,0.1,0,0.1-0.1,0.2l-0.1,0.7c0,0.1,0,0.2,0,0.4
	l1.2,1c0.1,0.2,0.3,0.4,0.5,0.4l0.6,0.1c0.1,0,0.3,0,0.4-0.1l0.5-0.3l0.3,0.4l0.1,0.9l-0.3,1.1l-0.8,1.1c0,0.1-0.1,0.1-0.1,0.2
	l-0.1,0.5c0,0.1,0,0.2,0,0.3l0.2,0.7c0,0.1,0.1,0.2,0.1,0.2l0.5,0.6c0.1,0.1,0.2,0.2,0.4,0.2l0.7,0.1c0.2,0,0.3,0,0.5-0.1l0.6-0.4
	c0.1-0.1,0.2-0.2,0.2-0.3l0.3-0.8l0.2-0.7l0.2-0.7l0.5-0.8l0,0.7c0,0.2,0.1,0.3,0.2,0.4l0.9,0.9c0.2,0.2,0.4,0.2,0.6,0.1l1.4-0.4
	c0.1,0,0.2-0.1,0.3-0.2l1-1.1l0.8-1l0.6-0.5l1.1,0.1l0.5,0.9l0.5,1.5c0,0.1,0.1,0.3,0.3,0.3l1.2,0.7c0.1,0,0.1,0.1,0.2,0.1l1.6,0.3
	l0.9,0.6l2.2,2.1c0.1,0.1,0.3,0.2,0.5,0.2c0.2,0,0.4-0.1,0.5-0.3l0.5-0.7l0.3,0l0.3,0.2l0.3,1.1l0.3,1c0.1,0.2,0.2,0.3,0.4,0.4
	c0.2,0.1,0.4,0.1,0.5,0l0.8-0.4c0.1,0,0.1-0.1,0.2-0.2l0.8-1l0.1-0.2l2.1,0.5l1.1,0c0.1,0,0.1,0,0.2,0l1-0.2l1.8-0.7l1.2-0.3l1-0.4
	l0.3,0l0.3,0.6c0,0.1,0.1,0.1,0.2,0.2l0.2,0.1c0.1,0,0.1,0,0.2,0.1l1.9,0.5c0.1,0,0.1-0.1,0.2-0.1h0l1.2,0.1c0.2,0,0.4,0,0.5-0.2
	l0.5-0.8c0-0.1,0.1-0.1,0.1-0.2l0.1-0.5l0.3-0.7l0.4-0.6l0.2-0.1c0,0.1,0,0.1,0,0.2l0.2,0.5l0.5,0.7l0.7,1.7c0,0.1,0.1,0.2,0.1,0.2
	l0.8,0.8c0.2,0.2,0.4,0.2,0.6,0.2c0.2,0,0.4-0.2,0.5-0.4l0.3-0.8c0-0.1,0-0.2,0-0.2l0-0.4c0-0.1,0-0.2-0.1-0.2l-0.1-0.4l0.1,0.1
	l0.2,0.8l0.6,1.7l0.1,0.7c0,0.2,0.2,0.4,0.4,0.5c0.2,0.1,0.5,0,0.6-0.1l0.3-0.3l0.8-0.2l1-0.1l0.5,0l0.3,0.3l0.3,0.5
	c0.1,0.1,0.1,0.2,0.2,0.2l0.5,0.3c0.2,0.1,0.4,0.1,0.6,0.1l1-0.4c0.2-0.1,0.3-0.2,0.4-0.3c0.1-0.2,0.1-0.3,0-0.5l-0.6-1.6l0-0.8
	l0.4-0.4l1.4-0.1l1.2,0.3l0.3,0.3l-1.3,0.3c-0.3,0.1-0.5,0.3-0.5,0.7l0,0.6c0,0.1,0,0.1,0,0.2l0.6,1.5l0.9,1.3
	c0.1,0.1,0.2,0.2,0.3,0.2l1.1,0.5c0.3,0.1,0.6,0,0.7-0.2l2.1-2.6l1.1-1l0.1,0.1l0.6,1.5c0.1,0.2,0.3,0.4,0.6,0.4l1.6,0l1.1-0.2
	l0.2,0.2l-0.3,1.2c0,0.1,0,0.2,0,0.3l0.1,0.6c0.1,0.2,0.2,0.4,0.5,0.5l0.9,0.2c0.1,0,0.1,0,0.2,0l4.9-0.1v0.3c0,0.1,0,0.2,0,0.3
	l0.6,1.3c0.1,0.2,0.2,0.3,0.4,0.3l2.8,0.7l0.2,0.3l-1.1,0l-1.1,0.1c-0.1,0-0.1,0-0.2,0.1l-1,0.5c-0.2,0.1-0.4,0.3-0.4,0.5
	c0,0.2,0.1,0.5,0.3,0.6l4.1,2.3l1,1.1l-1.2,0.9c-0.2,0.1-0.3,0.4-0.3,0.6c0,0.2,0.2,0.4,0.4,0.5l0.8,0.3c0.1,0,0.3,0.1,0.4,0
	l0.8-0.2c0.1,0,0.2,0,0.2-0.1l0.7-0.5l0.1,0.3l0.3,2.4c0,0.1,0,0.2,0.1,0.2l0.7,1.3c0.1,0.1,0.2,0.2,0.3,0.3l1,0.5
	c0.3,0.1,0.6,0,0.8-0.2l0.5-0.7l0.1,0.2c0.1,0.1,0.2,0.2,0.3,0.3l1.8,0.7l1.3,0.2l1.5-0.7c0.2-0.1,0.4-0.1,0.5-0.3
	c0.1-0.2,0.2-0.4,0.1-0.6l-0.5-1.6l0.2-0.3l0.8-0.1l1.2,0.1l0.3,0.2l0.6,0.8l0.6,0.5c0.2,0.1,0.4,0.2,0.7,0.1l0.7-0.3
	c0.1,0,0.2-0.1,0.3-0.3l0.9-1.4l0.4-0.5l0.4-0.1l0.3,0.1l0.1,0.8c0,0.1,0,0.2,0.1,0.3l0.3,0.6c0.1,0.1,0.1,0.2,0.2,0.2l0.9,0.6
	c0.1,0.1,0.2,0.1,0.4,0.1l0.4,0c0.2,0,0.4-0.1,0.5-0.3l0.7-1.1l0.1,0l0.2,0.4l0.2,1.2l0.1,1.2c0,0.2,0.1,0.3,0.2,0.5l0.4,0.3
	c0.2,0.1,0.4,0.1,0.7,0.1l1.5-0.7l-0.3,1.1l0,0.7c0,0.2,0.1,0.4,0.2,0.5l1.1,1c0.1,0.1,0.3,0.2,0.5,0.2l1.2-0.1c0.1,0,0.1,0,0.2,0
	l1.3-0.5l1.2-0.3l1.7,0.2l0.4,0.4l0.2,1.1l0.7,1.6c0,0.1,0.1,0.1,0.1,0.2l0.6,0.6c0.1,0.1,0.2,0.1,0.3,0.2l0.7,0.2l0.5,0.1l0.5,0.3
	l0.2,0.4l0.3,1.1c0,0.1,0.8,0.9,0.9,1l0.6,0.5c0.1,0.1,0.3,0,0.4,0c0,0,0,0,0,0c0.2,0,0.3,0.1,0.4,0l1.8-1.5l0.3-0.1l0.2,0.6l0.4,2
	c0,0.2,0.2,0.4,0.4,0.5l1,0.4c0.1,0,0.2,0,0.3,0l1.1-0.1l0.8,0.4l0.1,0.3l-0.1,0.6l-0.3,0.8l-0.1,0.4c0,0.2,0,0.4,0.2,0.6l0.3,0.3
	c0.1,0,0.1,0.1,0.2,0.1l1.1,0.5l0.4,0.3l2.4,2.7c0.1,0.1,0.1,0.1,0.2,0.2l0.7,0.3c0.1,0.1,0.3,0.1,0.4,0l0.8-0.2l0.5-0.3l0.3,0
	l0.9,0.5l1.6,1.7c0.1,0.1,0.2,0.1,0.3,0.2l1.8,0.6l0.4,1.8c0.1,0.1,0.2,0.1,0.3,0.1l1.3,0.3l0,0.4c0,0.1,0,0.1,0.1,0.2l0.3,0.6
	l1.6,2.4l2.7,5.1c0,0.1,0.1,0.1,0.1,0.2l2,1.7c0.2,0.1,0.4,0.2,0.6,0.1l1.1-0.4l0.9,0.7l2.9,2l1.9,2.1l0.3,0.8l0,1.3l-0.7,1.1
	c-0.1,0.1-0.1,0.2-0.1,0.3l0,0.7c0,0.3,0.2,0.6,0.5,0.6l0.9,0.2l0.2,0.2l0,0.7l0,1.1c0,0,0,0.1,0,0.2l0.1,0.7c0,0.2,0.1,0.3,0.3,0.4
	l0.9,0.6c0.2,0.1,0.4,0.1,0.6,0l0.7-0.2c0.1,0,0.2-0.1,0.2-0.1l0.5-0.4l0.2-0.1l0.3,0.1l0.4,0.6c0,0,0.1,0.1,0.1,0.1l0.6,0.4
	c0.2,0.1,0.4,0.2,0.7,0.1l0.4-0.2l0.9,1.2l1.4,4.7l0.7,1.7c0,0.1,0.1,0.2,0.2,0.2l0.9,0.7l1.8,0.9l0.6,0.5l1.4,2.6l2.3,3.2l1.2,2.3
	l0.3,0.5c0.1,0.1,0.1,0.2,0.2,0.2l0.7,0.4l2.2,0.7l2.8,2.1c0.2,0.2,0.5,0.2,0.8,0l0.8-0.6l0.7-0.3l0.9-0.1l1,0.1l0.7,0.2l1.4,1
	l0.4,0.2c0.1,0,0.2,0.1,0.3,0.1l4.1,0.2l1.6,0.6l0.7,1.2c0.1,0.1,0.2,0.2,0.4,0.3c0.2,0,0.3,0,0.5-0.1l1-0.6l0.7-0.2l6.9,0.9
	l1.1,0.5l1.7,1.6l1,0.6c0.1,0.1,0.2,0.1,0.3,0.1l1.2-0.1c0.3,0,0.6-0.3,0.6-0.6l0.1-1.1l0-1.2l0.4-0.8h0.1l0.3,1.4
	c0,0.1,0,0.3,0.1,0.4l0.3,0.5c0.1,0.2,0.3,0.3,0.5,0.3l0.6,0.1l1.5,0.4l1.5,0.2l0.8,0.2l0.7,0c0.1,0,0.1,0,0.2,0l0.9-0.3
	c0.1,0,0.1-0.1,0.2-0.1l1.6-1.2l1.7-0.7l0.3,0l0.6,0.5l0.8,0.9c0.1,0.1,0.3,0.2,0.5,0.2l0.3,0c0.1,0,0.4-0.1,0.5-0.2l0.2-0.2
	l0.8-0.2l2.4-1l0.4,0l0.3,0.2l0.7,1.3l0.5,0.8c0,0.1,0.1,0.1,0.2,0.2l0.9,0.6c0.1,0,0.1,0.1,0.2,0.1l1.3,0.3l2.5,0.2
	c0.2,0,0.3-0.1,0.5-0.2l0.4-0.4c0.1-0.1,0.1-0.2,0.2-0.3l0.2-0.8l0.2-0.4l0.8,2l0.4,0.7c0,0.1,0.1,0.2,0.2,0.2l1.6,1.1l-0.4,0.4
	c0,0-0.1,0.1-0.1,0.1l-0.2,0.3c-0.1,0.1-0.1,0.2-0.1,0.3l0.1,1.3c0,0.1,0,0.1,0.1,0.2l1.3,2.4l-0.2,0.6l-0.6,0.4l-0.3,0.1l-0.6-0.1
	l-1.1-0.6l-0.5-0.2l-0.6-0.1l-0.6,0.1l-1,0.4l-1,0.9l-2.4,4.6l-0.6,0.9l-0.5,0.5L616,290l-1.2,0.6l-0.3,0.2c0,0-0.1,0.1-0.1,0.1
	l-0.8,1.2l0-0.1c0-0.1,0-0.2,0-0.3l-0.1-0.3c-0.1-0.2-0.2-0.3-0.4-0.4l-0.3-0.1c-0.1,0-0.3,0-0.4,0l-0.3,0.1c-0.1,0-0.1,0.1-0.2,0.1
	l-0.3,0.2c-0.1,0-0.1,0.1-0.2,0.2l-0.3,0.5l-0.1,0.5c0,0.1,0,0.1,0,0.2l0.1,1l0.2,0.8l-0.3,0.6l-1.1,0.9l-0.3,0.3l-0.3,0.5
	c0,0.1-0.1,0.1-0.1,0.2l-0.7,3.7l-0.1,2l1.1,7.4l-0.1,0.6l-1.3,3.7l-0.4,1.9l-0.3,0.5l-1.4,1.5c-0.1,0.1-0.1,0.1-0.1,0.2l-0.2,0.8
	c0,0.1,0,0.1,0,0.2l0,0.9l0.1,1l0,0.2l-0.2,0.1l-0.4-0.1c-0.1,0-0.2,0-0.2,0l-0.3,0c-0.2,0-0.3,0.1-0.4,0.2l-0.4,0.4l-0.2,0.4
	l-0.4-1l-0.2-0.3c0-0.1-0.1-0.1-0.2-0.1l-0.3-0.1c-0.1,0-0.2,0-0.3,0l-0.4,0.2c0,0,0,0-0.1,0c-0.2,0-0.3-0.1-0.4,0l-0.3,0.2
	c0,0-0.1,0.1-0.1,0.2l-0.3,0.7l-0.4,1.1l-0.5,1l-0.9,1.2l-2.2,2l-1.4,0.9l-0.3,0.3c-0.1,0.1-0.1,0.1-0.2,0.2l-0.2,0.5
	c0,0.1,0,0.1-0.1,0.2l0,0.7c0,0,0,0.1,0,0.2l0.2,1.3l0.1,1.5l-0.4,2.3l-0.1,0.6l0,0.6l0.1,0.5c0,0.1,0,0.1,0.1,0.2l0.2,0.5
	c0,0.1,0.1,0.2,0.2,0.2l1,0.7l0.7,0.4l3.5,1l0.3,0.2l0.4,0.5l1,1.4l0.3,0.3c0,0,0.1,0.1,0.1,0.1l0.4,0.2c0.1,0.1,0.3,0.1,0.4,0.1
	l0.4-0.1c0.1,0,0.2-0.1,0.3-0.1l0.5-0.4c0.1-0.1,0.2-0.2,0.2-0.3l0.4-1.1c0,0,0-0.1,0-0.2l0.1-0.8l-0.1-0.7l-0.5-1.3l-0.3-0.5
	l-0.9-0.9l-2.4-1.8l-0.2-0.2l-0.1-0.2l0.6-0.4l3.3-0.7l0.8-0.3l1.4-0.9l0.3-0.1l0.2,0l1.2,0.1h0c0.1,0,0.2-0.1,0.3-0.2l0.4-0.3
	c0.1-0.1,0.2-0.2,0.3-0.4l0.3-0.9l0.3-0.2l1.5,0.1l3.9,1.6l1,0.7l2.9,3.4c0,0.1,0.1,0.1,0.2,0.1l1.3,0.7l1.8,0.5l0.5-1l-1.9-0.6
	l-1.1-0.6l-2.9-3.4l-0.7-0.6l-0.6-0.4l-4.1-1.7c-0.1,0-0.1,0-0.2,0l-1.8-0.2c-0.1,0-0.3,0-0.4,0.1l-0.4,0.3l-0.3,0.4
	c-0.1,0.1-0.1,0.2-0.1,0.2l-0.3,0.8l0,0l-1.1,0l-0.4,0c-0.1,0-0.1,0-0.2,0l-1.9,1.1l-0.6,0.2l-3.3,0.7l-0.7,0.3
	c-0.1,0-0.1,0.1-0.2,0.1l-0.6,0.4c-0.1,0.1-0.4,0.3-0.4,0.4v0.4c0,0.1,0.3,0.2,0.3,0.3l0.3,0.4c0,0.1,0.1,0.1,0.1,0.1l0.4,0.4
	l2.5,1.9l0.7,0.7l0.4,1l0.1,0.8l-0.1,0.6l-0.3,0.9l-0.2,0.2l-0.1,0l-0.1-0.1l-1.1-1.5l-0.6-0.6l-0.5-0.4c-0.1,0-0.1-0.1-0.2-0.1
	l-3.5-1l-0.5-0.3l-0.8-0.6l-0.1-0.3l-0.1-0.7l0.5-2.8c0-0.1,0-0.1,0-0.2l-0.1-1.6l-0.2-1.3l0-0.5l0.1-0.3l1.5-1l2.4-2.2l1-1.4
	l0.6-1.2l0.4-1.1l0.3-0.5l0,0l0.5,0.9l0.2,0.4c0,0.1,0.1,0.1,0.1,0.2l0.3,0.2c0.1,0.1,0.3,0.2,0.5,0.2l0.3,0c0.1,0,0.3-0.1,0.4-0.2
	l0.3-0.3c0,0,0.1-0.1,0.1-0.1l0.2-0.4l0.1-0.1l0.7,0.2c0.1,0,0.2,0,0.3,0l0.5-0.2c0.1,0,0.2-0.1,0.3-0.3l0.2-0.4
	c0-0.1,0.1-0.1,0.1-0.2l0.1-0.5c0-0.1,0-0.1,0-0.2l-0.1-1l0-0.7l0.1-0.3l1.5-1.7l0.4-0.7c0-0.1,0.1-0.1,0.1-0.2l0.4-1.9l1.1-2.8
	l0.3-1l0.1-0.8c0-0.1,0-0.1,0-0.2l-1.1-7.4l0.1-1.9l0.5-2.9l0.1-0.5l1.1-1l0.5-0.5l0.4-0.6c0-0.1,0.1-0.1,0.1-0.2l0.1-0.5
	c0-0.1,0-0.2,0-0.3l-0.1-0.6l-0.1-0.4l-0.1-0.8l0,0c0,0,0,0.1,0,0.1l0.1,0.3c0.1,0.2,0.3,0.3,0.5,0.4l0.3,0c0.1,0,0.3,0,0.4-0.1
	l0.4-0.2c0.1,0,0.1-0.1,0.2-0.2l1.1-1.5l0.8-0.4l1.1-0.4c0.1,0,0.2-0.1,0.3-0.1l0.7-0.7l0.7-1l2.1-4.2l0.7-0.7l0.5-0.3l0.5-0.1
	l0.3,0l1.1,0.6l0.5,0.2l0.5,0.1l0.5,0c0.1,0,0.1,0,0.2,0l0.5-0.1c0.1,0,0.1,0,0.2-0.1l0.8-0.6c0.1-0.1,0.2-0.2,0.3-0.3l0.3-1.1
	c0-0.2,0-0.3,0-0.5l-1.3-2.5l-0.1-0.9l0.6-0.7l0.2-0.3c0.2-0.2,0.2-0.5,0-0.7l-0.2-0.2c0-0.1-0.1-0.1-0.2-0.2l-1.8-1.3l-1.1-2.7
	l-0.3-0.5c-0.1-0.2-0.3-0.3-0.7-0.3l-0.7,0.1c-0.2,0-0.4,0.2-0.4,0.4l-0.4,0.8l-0.2,0.7l-0.1,0.1l-2.1-0.1l-1.1-0.3l-0.7-0.5
	l-0.4-0.6l-0.4-0.8l-0.4-0.7c0-0.1-0.1-0.1-0.2-0.2l-0.6-0.5c-0.1-0.1-0.3-0.2-0.4-0.1l-0.7,0.1c-0.1,0-0.1,0-0.2,0l-2.4,1l-0.9,0.2
	c-0.1,0-0.2,0.1-0.3,0.2l0,0l-0.6-0.6l-0.8-0.6c-0.1-0.1-0.2-0.1-0.3-0.1l-0.7-0.1c-0.1,0-0.2,0-0.3,0l-2,0.8c-0.1,0-0.1,0-0.2,0.1
	l-1.5,1.2l-0.7,0.2l-0.4,0l-0.7-0.2l-1.5-0.2l-1.5-0.4l-0.4,0l-0.3-1.1l-0.3-0.8c-0.1-0.2-0.3-0.5-0.6-0.5l-0.8-0.1h0
	c-0.2,0-0.4,0.2-0.5,0.4l-0.7,1.1c-0.1,0.1-0.1,0.3-0.1,0.4l0,1.2l-0.1,0.4l-0.4,0l-0.7-0.4l-1.6-1.6c0-0.1-0.1-0.1-0.2-0.1
	l-1.3-0.6c-0.1,0-0.1,0-0.2,0l-7.1-0.9c-0.1,0-0.2,0-0.2,0l-0.9,0.2c-0.1,0-0.1,0-0.2,0.1l-0.5,0.3l-0.5-0.8
	c-0.1-0.1-0.2-0.2-0.3-0.3l-1.9-0.7c0,0-0.1,0-0.2,0l-4-0.2l-1.6-1.1c-0.1,0-0.1-0.1-0.1-0.1l-0.8-0.3c-0.1,0-0.1,0-0.2,0l-1.2-0.1
	l-1.2,0.2l-1,0.4c-0.1,0-0.1,0-0.2,0.1l-0.4,0.3l-2.5-1.9c-0.1,0-0.1-0.1-0.2-0.1l-2.2-0.7l-0.5-0.2l-1.4-2.6l-2.3-3.2l-1.1-2.1
	L558,256c0-0.1-0.1-0.1-0.1-0.2l-0.8-0.6l-1.8-0.9l-0.6-0.5l-0.6-1.5l-1.4-4.7c0-0.1-0.1-0.1-0.1-0.2l-1.3-1.7
	c-0.2-0.3-0.5-0.3-0.8-0.2l-0.5,0.2l-0.7-0.7c-0.1-0.1-0.1-0.1-0.2-0.2l-0.7-0.4c-0.2-0.1-0.4-0.1-0.6,0l-0.5,0.3
	c0,0-0.1,0.1-0.1,0.1l-0.4,0.4l-0.2,0.1l-0.4-0.2l-0.1-0.4l0-1.1l-0.1-1c0-0.2-0.1-0.3-0.2-0.4l-0.5-0.4c-0.1,0-0.1-0.1-0.2-0.1
	l-0.6-0.1l0.7-1.1c0.1-0.1,0.1-0.2,0.1-0.3l0-1.6c0-0.1,0-0.1,0-0.2l-0.4-1c0-0.1-0.1-0.2-0.1-0.2l-2-2.1l-2.1-2.8
	c0,0-0.8,0.7-0.9,0.6l-1.3-0.9c-0.2-0.1-0.4-0.2-0.6-0.1l-1.1,0.4l-1.6-1.4l-2.6-5l-1.6-2.4l-0.2-0.5l0-0.4c0-0.1,0-0.2-0.1-0.2
	l-0.2-0.4c-0.1-0.2-0.2-0.3-0.4-0.3l-1.4-0.3l-0.4-1.8c-0.1-0.1-0.1-0.1-0.2-0.1l-1.8-0.6l-1.6-1.6c0,0-0.1-0.1-0.1-0.1l-1.1-0.6
	c-0.1-0.1-0.2-0.1-0.4-0.1l-0.6,0.1c-0.1,0-0.1,0-0.2,0l-0.5,0.3l-0.4,0.1l-0.4-0.2l-2.4-2.7l-0.6-0.5c0,0-0.1-0.1-0.1-0.1l-1.1-0.5
	l0,0l0.3-0.8l0.2-0.8c0-0.1,0-0.2,0-0.3l-0.2-0.7c0-0.2-0.1-0.3-0.3-0.4l-1.1-0.7c-0.1,0-0.2,0-0.3-0.1l-1.1,0.1l-0.6-0.2l-0.4-1.7
	l-0.5-1.3c-0.1-0.2-0.2-0.3-0.3-0.4c-0.1-0.1-0.3-0.1-0.5,0l-1,0.4c-0.1,0-0.2,0.1-0.2,0.1l-1.4,1.4l-0.2-1c0-0.1,0-0.2-0.1-0.2
	l-0.4-0.6c-0.1-0.1-0.1-0.2-0.2-0.2l-1.5-1.2c-0.1,0-0.1-0.1-0.2-0.1l-0.6-0.1l-0.5-0.1l-0.4-0.4l-0.6-1.4l-0.3-1.2
	c0-0.1-0.1-0.2-0.2-0.3l-0.7-0.7c-0.1-0.1-0.2-0.2-0.4-0.2l-2-0.2c-0.1,0-0.1,0-0.2,0l-1.5,0.4l-1.3,0.5l-0.9,0.1l-0.7-0.6l0.5-1.9
	c0.1-0.2,0-0.4-0.1-0.6l-0.3-0.3c-0.2-0.2-0.5-0.3-0.8-0.2l-1.8,0.8l0-0.7l-0.2-1.4c0-0.1,0-0.1-0.1-0.2l-0.5-0.9
	c-0.1-0.3-0.4-0.4-0.7-0.3l-0.8,0.2c-0.1,0-0.3,0.1-0.3,0.2l-0.7,0.9l-0.1,0.1l-0.5-0.3l-0.2-0.3l0-0.6c0-0.1,0-0.1,0-0.2l-0.2-0.6
	c-0.1-0.2-0.2-0.4-0.4-0.4l-0.8-0.2c-0.1,0-0.3,0-0.4,0l-0.8,0.3c-0.1,0-0.2,0.1-0.3,0.2l-0.6,0.7l-0.8,1.3l-0.2,0.1l-0.7-0.9
	c0-0.1-0.1-0.1-0.2-0.1l-0.6-0.4c-0.1-0.1-0.2-0.1-0.3-0.1l-1.5-0.1l-1.2,0.1c-0.2,0-0.4,0.1-0.5,0.3l-0.6,0.7
	c-0.1,0.2-0.2,0.4-0.1,0.6l0.3,1.1l-0.5,0.8l-1.1-0.2l-1.4-0.5l0.5-0.9c0.1-0.1,0.1-0.3,0.1-0.4l-0.1-0.6c0-0.1-0.1-0.2-0.1-0.3
	l-0.4-0.4c-0.1-0.1-0.1-0.1-0.2-0.1l-0.5-0.3c-0.2-0.1-0.4-0.1-0.6,0c-0.2,0.1-0.3,0.2-0.4,0.4l-0.5,2.5l-0.2,0.3l-0.4-0.2l-0.6-1
	l-0.3-2.4c0-0.1,0-0.1,0-0.2l-0.6-1.3c-0.1-0.2-0.3-0.3-0.5-0.4c-0.2,0-0.4,0-0.6,0.2c0-0.1-0.1-0.2-0.1-0.2l-1.5-1.7
	c0,0-0.1-0.1-0.2-0.1l-3-1.7l0.6,0.1l2.3,0.3c0,0,0,0,0,0c0.2,0,0.4-0.3,0.6-0.5c0.1-0.2,0.1-0.6,0-0.8l-1-1.5
	c-0.1-0.1-0.2-0.2-0.4-0.3l-2.8-0.7l-0.4-0.9l0-0.8c0-0.1,0-0.2-0.1-0.3l-0.1-0.1c-0.1-0.1-0.2-0.2-0.4-0.3c-0.1,0-0.3,0-0.5,0.1
	l-0.1,0.1l-4.9,0.1l-0.5-0.1l0-0.1l0.4-1.4c0.1-0.2,0-0.4-0.2-0.6l-0.7-0.7c-0.1-0.1-0.4-0.2-0.6-0.2l-1.4,0.2l-1.1,0l-0.5-1.2
	c0-0.1-0.1-0.2-0.2-0.3l-0.7-0.5c-0.2-0.2-0.6-0.2-0.8,0l-1.6,1.4l-1.9,2.3l-0.5-0.2l-0.7-1l-0.5-1.2l1-0.2c0.2,0,0.4-0.2,0.4-0.3
	l0.4-0.7c0.1-0.2,0.1-0.5-0.1-0.7l-0.7-0.7c-0.1-0.1-0.2-0.1-0.3-0.2l-1.5-0.4c-0.1,0-0.1,0-0.2,0l-1.7,0.2c-0.1,0-0.3,0.1-0.4,0.2
	l-0.8,0.7c-0.1,0.1-0.2,0.3-0.2,0.5l0,1.2c0,0.1,0,0.1,0,0.2l0.4,1.1l-0.1,0l-0.4-0.5c0-0.1-0.1-0.1-0.1-0.2l-0.5-0.5
	c-0.1-0.1-0.2-0.2-0.4-0.2l-0.9,0l-1.2,0.1l-0.9,0.2l-0.5-1.5l-0.1-0.8c0-0.1,0-0.2-0.1-0.2l-0.2-0.3c-0.1-0.1-0.1-0.1-0.2-0.2
	l-0.5-0.3c-0.1-0.1-0.2-0.1-0.3-0.1l-0.5,0c-0.2,0-0.5,0.2-0.6,0.4l-0.2,0.6c0,0,0,0,0,0.1l-0.3-0.7l-0.5-0.7l-0.1-0.3l0-0.2
	c0-0.1,0-0.2-0.1-0.3l-0.1-0.2c-0.1-0.2-0.3-0.3-0.6-0.3h-0.6c-0.1,0-0.2,0-0.3,0.1l-0.5,0.3c-0.1,0-0.1,0.1-0.2,0.2l-0.5,0.8
	l-0.4,0.9l-0.1,0.5l-0.3,0.4l-0.7,0l-1.7-0.5l-0.4-0.6c0-0.1-0.1-0.1-0.2-0.2l-0.2-0.2c-0.1-0.1-0.3-0.2-0.5-0.1l-0.7,0.1l-1,0.4
	l-1.1,0.3l-1.8,0.7l-0.8,0.2l-0.9,0l-1.7-0.5l-0.9-0.1c-0.2-0.1-0.5,0.1-0.6,0.3l-0.3,0.4l-0.7,0.8l-0.4-1.5c0-0.1-0.1-0.3-0.2-0.3
	l-0.7-0.6c-0.1-0.1-0.3-0.2-0.5-0.1l-0.8,0.1c-0.2,0-0.3,0.1-0.4,0.2l-0.2,0.3l-1.7-1.7l-1.1-0.8c-0.1,0-0.2-0.1-0.3-0.1l-1.6-0.3
	l-0.9-0.6l-0.5-1.4l-0.7-1.3c-0.1-0.2-0.3-0.3-0.5-0.3l-1.6-0.2c-0.1-0.1-0.3,0-0.4,0.1l-0.9,0.7c0,0-0.1,0.1-0.1,0.1l-0.8,1
	l-0.9,0.9l-0.8,0.3l-0.4-0.4l-0.1-1.3c0-0.1,0-0.1,0-0.2l-0.3-0.6c-0.1-0.2-0.3-0.4-0.5-0.4c-0.3-0.1-0.5,0.1-0.6,0.3l-1.4,2.1
	l-0.3,0.9l-0.2,0.7l-0.2,0.6l-0.2,0.2l-0.2,0l-0.2-0.3l-0.1-0.4l0.1-0.2l0.8-1.1c0-0.1,0.1-0.1,0.1-0.2l0.4-1.3c0-0.1,0-0.2,0-0.3
	l-0.1-1.2c0-0.1-0.1-0.3-0.2-0.4l-1.6-0.9c-0.2-0.2-0.6-0.3-0.8-0.1l0.1,0.4l-1-0.5l0.1-0.4l0.3-0.7l1.1-1.4
	c0.1-0.1,0.1-0.3,0.1-0.4l0-0.7c0-0.3-0.2-0.5-0.4-0.6l-1.1-0.3c-0.1,0-0.2,0-0.3,0l-1.4,0.2c-0.1,0-0.2,0.1-0.3,0.2l-1.1,1
	c-0.1,0.1-0.1,0.2-0.2,0.3l0.3,1.7l-0.2,1.3l-0.4,0.8l-1,0.7l-1.1,0.1l-0.8-0.4l-1.6-1.8c-0.2-0.2-0.4-0.2-0.6-0.2
	c-0.2,0.1-0.4,0.2-0.5,0.4l-0.6,2.1l-0.4,0.8l-0.4,0.3l-1.4-1.1c-0.1-0.1-0.1-0.1-0.2-0.1l-0.9-0.3c-0.1,0-0.3,0-0.4,0l-1.8,0.6
	c-0.1,0-0.1,0-0.2,0.1l-3.1,2.1l-0.6-0.1l1.4-2.9l0.8-2.3c0-0.1,0-0.3,0-0.4l-0.4-1c-0.1-0.2-0.3-0.4-0.5-0.4l-1.8-0.2l-1.3-0.5
	l-2.7-1.9c-0.1-0.1-0.3-0.1-0.5-0.1c-0.2,0-0.3,0.2-0.4,0.3l-1.3,2.4l-0.9,1.1l-1,0.4l-0.7,0.2c-0.1,0-0.1,0-0.2,0.1l-1,0.6l-0.2,0
	l-0.5-0.8l-0.6-0.7c-0.1-0.1-0.2-0.2-0.4-0.2l-0.8-0.2c-0.2,0-0.4,0-0.6,0.2l-1,1c-0.1,0.1-0.2,0.3-0.2,0.4l0,1.8l0.2,1.8l-0.2,0.9
	l-0.5,0.1l-3.1-1.3c0,0-1.7-0.3-1.7-0.3c-0.1,0-0.3,0-0.4,0.1l-1.3,0.7c-0.1,0-0.1,0.1-0.2,0.1l-1.6,1.9l-0.6,0.2l-0.1-1.6l-0.4-1.6
	c0-0.1-0.1-0.2-0.2-0.3l-1.1-0.9c-0.1-0.1-0.3-0.2-0.5-0.1l-0.6,0c-0.1,0-0.2,0-0.3,0.1l-0.6,0.4l-0.7,0.7l-1.5,0.8l-0.4,0.1l-0.8,0
	l-0.4-0.1l-0.2-0.7l-0.3-0.7c0-0.1-0.1-0.1-0.1-0.2l-0.6-0.6c-0.1-0.1-0.2-0.1-0.3-0.2l-0.5-0.1c-0.1,0-0.2,0-0.3,0l-1.6,0.5
	l-0.2,0.1l0.2-0.3c0-0.1,0.1-0.2,0.1-0.3l0-0.6c0-0.2,0-0.3-0.2-0.5l-0.5-0.6l0-0.1l1-0.7c0.1,0,0.1-0.1,0.2-0.2l0.3-0.5
	c0.1-0.1,0.1-0.2,0.1-0.3l0.1-1.2l-0.1-2.1l0.2-0.7l1-0.2c0.1,0,0.2,0,0.2-0.1l0.5-0.3c0.1,0,0.1-0.1,0.2-0.2l0.4-0.6l3.1-6.6
	l0.9-2.9l0.1-2.5l-0.8-4.7l-0.8-2.9c0-0.2-0.2-0.3-0.3-0.4l-0.2-0.1c-0.1,0-0.2-0.1-0.2-0.1l-0.5,0l0-0.2l0.4-0.9
	c0-0.1,0.1-0.2,0-0.3l0-0.8c0-0.2-0.1-0.4-0.2-0.5l-0.3-0.2c0,0-0.1-0.1-0.2-0.1l-0.5-0.2l-0.4-0.3l-0.2-0.6l0.1-0.3l0.8-0.2
	c0.1,0,0.2-0.1,0.3-0.1l0.5-0.4c0.1-0.1,0.2-0.2,0.2-0.3l0.5-1.6l0.1-1.6l-0.3-2.9l0-1.4l0.9-2.7l0.2-1.3c0-0.3-0.1-0.6-0.4-0.7
	l-0.2-0.6l-0.1-0.6l0.1-0.3l1.4-1.2c0.1-0.1,0.2-0.3,0.2-0.5l0-2.5l-0.8-7.1l0.5-2.1l2.9-4.1c0,0,0.1-0.1,0.1-0.2l0.6-2l0.3,0.1
	c0.1,0,0.2,0,0.3,0l1.1-0.3l0.7-0.1l4.6,1.2l2.5,1.3c0.1,0,0.1,0,0.2,0.1l0.7,0.1l0.8,0.1l1.4-0.1l0.8-0.2l0.6-0.2l5.5-3.3l0.3-0.1
	l1.1-0.1l0.9,0.2l4.1,1.4l1,0.6l0.6,0.4l0.5,0.7l3.6,2.3l1.3,1l2.2,1l0.4,0.3l1,1.3c0,0,0.1,0.1,0.1,0.1l0.3,0.2
	c0.1,0,0.1,0.1,0.2,0.1l0.8,0.2l1.1,0.1l3.9-0.3l3.1-0.9l0.4-0.2l0.2,0l0.3,0.1l1.3,0.9c0,0,0.1,0.1,0.2,0.1l0.5,0.2
	c0.1,0,0.1,0,0.2,0l0.8,0l2-0.3l2.6-0.9l1.3-0.7l0.6-0.2l1.3-0.3l0.8-0.1l9.9,3.2l1,0.5l0.5,0.9c0,0,0.1,0.1,0.1,0.1l0.3,0.2
	c0.1,0.1,0.2,0.1,0.3,0.1l1.7,0.3l5.2-0.3l2.5,0.7l2.6,1.4l0.9,0.3c0.1,0,0.1,0,0.2,0l3.6-0.1l3.4,0.8l1,0.1l0.8,0l2-0.4l1.6,0.3
	l2,0.7l1.7,0.3c0.1,0,0.1,0,0.2,0l9,0.6l0.3,0l2.1-1l3.3,2l0.2,0.2l0.8,1.6l0.2,0.3c0,0.1,0.1,0.1,0.1,0.2l1.2,1.1l4,2.6l1.3,1.2
	l0.3,0.2c0,0,0.1,0.1,0.2,0.1l0.5,0.1c0.1,0,0.1,0,0.2,0l0.7,0l2.4-0.1l1.4,0.2l4.6,1.3c0.1,0,0.1,0,0.2,0l4.1-0.6l1-0.2l0.8-0.2
	c0.1,0,0.1,0,0.2-0.1l1.2-0.8l0.3-0.1l0.3,0l0.3,0l0.4,0.2l0.4,0.6c0.1,0.1,0.1,0.2,0.2,0.2l0.5,0.3c0.1,0,0.1,0.1,0.2,0.1l0.7,0.2
	c0.1,0,0.1,0,0.2,0l7.7-0.4c0,0,0.1,0,0.1,0l0.4,0.2l0.1,1.1c0,0.1,0,0.1,0,0.2l0.2,0.5l0.2,0.4l0.3,0.4l0.4,0.3l0.2,2l0.4,0.4
	l0.5,0.9l0.5,1.2l0.8,1.5l0.3,0.3c0.1,0.1,0.1,0.1,0.2,0.2l0.3,0.1c0.1,0,0.3,0.1,0.4,0l0.3-0.1c0.2,0,0.3-0.1,0.4-0.3l0.4-0.7
	l0.2-0.8l0.6-0.3l3.8-1l2.3-0.3l0.7-0.2l0.6-0.3l2.3-1.8c0.1,0,0.1-0.1,0.2-0.2l1-1.8c0-0.1,0.1-0.1,0.1-0.2l0.2-1.3l-0.1-1
	l-0.8-2.5l-2.1-3.7l0.7-1.2c0,0,0-0.1,0.1-0.2l0.1-0.5c0-0.1,0-0.1,0-0.2l-0.1-0.4c0-0.1,0-0.2-0.1-0.3l-0.3-0.4l-0.8-0.6l-0.4-0.6
	l-0.1-0.5l0.1-0.5l1.6-2l0.6-1.3c0,0,0-0.1,0-0.2l0.2-1.8l0.2-0.7l1.7-1.7l0.7-0.9l1-0.7l4.2-1.2l0.6-0.3l0.6-0.4l0.9-0.8l0.5-0.6
	l0.7-1l0.7-0.7l0.4-0.2l0.2,0l0.4,0.4c0,0,0.1,0.1,0.1,0.1l0.3,0.2c0.1,0.1,0.2,0.1,0.3,0.1l0.7,0l0.8-0.1l1.1-0.4l1-0.2l0.9,0.7
	l0.7,1l0.3,0.3c0.1,0.1,0.2,0.2,0.3,0.2l0.3,0.1c0.1,0,0.3,0,0.4,0l0.4-0.1c0.1-0.1,0.3-0.2,0.3-0.3l0.6-1l0.2-0.1l0.4,0l0.3,0.1
	l0.3,0.3l0.2,1.4c0,0.1,0,0.2,0.1,0.3l0.2,0.3c0.1,0.1,0.2,0.2,0.4,0.3l0.3,0.1c0.1,0.1,0.3,0,0.4,0l0.4-0.2
	c0.1-0.1,0.2-0.1,0.3-0.3l0.4-0.7l0.3-0.8l0.6-0.2l0.8,0.1l0.5,0.1l0.5,0.1l0.5,0l0.5-0.2l2.8-2l0.6-0.3l0.6-0.2l0.3,0l0.3,0
	l0.8,0.5l0.6,0.5c0.1,0.1,0.3,0.1,0.4,0.2l0.3,0c0,0,0,0,0,0c0.2,0,0.3-0.1,0.4-0.2l0.3-0.3c0.1-0.1,0.1-0.2,0.2-0.3l0.2-0.9
	l0.3-0.8l0.4-0.8l1.4-1.9L559,92l0.6-0.9l0.8-1.8l1.2-4l0.3-0.4l0.7-0.3l3.3-0.5l0.9-0.3c0.1,0,0.1,0,0.2-0.1l0.5-0.3
	c0.2-0.1,0.3-0.4,0.3-0.6l0-0.3c0-0.1,0-0.2-0.1-0.3l-0.2-0.3c0-0.1-0.1-0.1-0.2-0.1l-1.7-0.9l-0.2-0.2l1.2,0.5l0.7,0.5
	c0.1,0.1,0.2,0.1,0.3,0.1l0.8,0.2l4.4-0.1l1,0.3l0.2,0.2l0.3,0.7l0.2,0.3c0,0.1,0.1,0.1,0.1,0.2l0.4,0.4l0.3,0.2
	c0,0,0.1,0.1,0.2,0.1l0.6,0.1l2.2,0.2l0.5,0.1l0.5,0.2l0.3,0.4l0.6,2l0.2,0.4c0,0.1,0.1,0.1,0.1,0.2l0.3,0.3c0,0,0.1,0.1,0.1,0.1
	l1.2,0.6c0.1,0,0.1,0,0.2,0l0.4,0c0,0,0.1,0,0.2,0l0.4-0.1c0.1,0,0.2-0.1,0.3-0.2l0.4-0.5c0.1-0.1,0.1-0.2,0.1-0.3l0.1-0.4
	c0-0.1,0-0.1,0-0.2l-0.3-1.6l0.1-0.7l0.3-0.5l1.3-1l0.2-0.1l1.4-0.2l1.7,0.1l0.8,0.2l0.5,0.2l0.4,0.2l0.9,0.4l1.2,0.2
	c0.1,0,0.1,0,0.2,0l1.3-0.2l0.9-0.4l0.6-0.1l2.5,0.1l6.4-1.3l0.9-0.3c0.1,0,0.2-0.1,0.3-0.2l0.2-0.3l0.8-0.4l1.8,0.2l0.9-0.1l0.2,0
	l0.5,0.5c0,0,0.1,0.1,0.1,0.1l0.4,0.3c0.1,0,0.1,0.1,0.2,0.1l0.8,0.2l1,0.1l0.5,0.1L614,83l1.1,0.8l0.9,0.8l1.4,1.5l1.3,1l4.4,2.6
	l0.9,0.7l0.4,0.5l0.1,0.7c0,0.1,0.1,0.2,0.1,0.3l0.4,0.5c0,0,0.1,0.1,0.1,0.1l4.1,2.6l5.1,2.4l1.1,0.3l2,0.2l2.7,0
	c0.1,0,0.1,0,0.2,0l1.7-0.5c0.1,0,0.3-0.2,0.4-0.3l0.4-0.8l0.5-1.5l0.3-0.6l0.9-0.8l0.9-0.4l1.2-0.2l3.6-1.2l5.7-3.1l1.1-1.2
	l1.9-2.7l0.9-1l1.5-1.1l1.1-0.6l1.4-0.6l2.4-0.5l0.6-0.3l0.3-0.2c0.1,0,0.1-0.1,0.2-0.2l0.2-0.2l0.4-0.2l0,0.6c0,0.1,0,0.1,0,0.2
	l0.1,0.4c0,0.1,0.1,0.2,0.3,0.3l0.3,0.2c0.1,0.1,0.2,0.1,0.3,0.1l0.5,0c0.1,0,0.2,0,0.3,0l1-0.4l0.3,0l0.9,0.5c0.1,0,0.1,0,0.2,0.1
	l0.4,0.1c0.2,0,0.4,0,0.5-0.1l0.4-0.3c0,0,0.1-0.1,0.1-0.2l0.3-0.4l0.1-0.2l1.4,0.8c0.2,0.1,0.3,0.1,0.5,0.1l1.5-0.5l1,0.1l1.4-0.1
	c0.1,0,0.2,0,0.3-0.1l1-0.7c0.1-0.1,0.2-0.2,0.2-0.3l0.2-0.6l-0.1-0.4l17.9-0.6V52.5h-0.4l0.4-2.3V22.7l-1.6-0.3L695.3,12.8z"/>
<g>
	<defs>
		<rect id="SVGID_1_" x="50.1" y="35.6" width="649.4" height="682.5"/>
	</defs>
	<clipPath id="SVGID_2_">
		<use xlink:href="#SVGID_1_"  overflow="visible"/>
	</clipPath>
	<g clip-path="url(#SVGID_2_)">
		<g>
			<path fill-rule="evenodd" clip-rule="evenodd" fill="#E6E6E6" d="M711,170.3l0.5-0.3l0.3-0.4l-0.7-0.2c-0.2,0-0.3-0.2-0.4-0.3
				l-1-1.7l-0.6,0.4l-0.3,0.6l-0.3,0.7c0,0.1,0,0.1-0.1,0.2l-0.5,0.6c-0.1,0.1-0.2,0.2-0.3,0.2l-1,0.3c-0.1,0-0.2,0-0.3,0l-1-0.2
				c-0.1,0-0.2-0.1-0.3-0.2l-0.6-0.6c-0.1-0.1-0.1-0.1-0.1-0.2l-2.1-3.6c0-0.1,0-0.3,0-0.4l0.2-0.8c0-0.1,0.1-0.1,0.1-0.2l0.4-0.5
				l0.7-2.7l0.7-1.3l0.1-0.9l-0.8-1l-0.4,0c-0.1,0-0.2,0-0.3-0.1l-0.6-0.3c-0.1,0-0.2-0.1-0.3-0.2l-0.6-0.9
				c-0.1-0.1-0.1-0.2-0.1-0.3l-0.1-0.6l0.2-3.4l0.4-1l-0.1-0.2l-0.6-0.6c-0.1-0.1-0.1-0.1-0.1-0.2l-0.1-0.4c0,0,0-0.1,0-0.2
				l-0.1-2.5l0.1-1.1l0.5-1.3l0.8-1.5l0.9-1.2c0-0.1,0.1-0.1,0.1-0.1l0.9-0.7l0.2-0.4l0.1-0.5l-0.1-0.3l-0.2-0.1l-1.4,0.4
				c0,0-0.1,0-0.2,0l-0.8,0c-0.1,0-0.3,0-0.4-0.1l-2.3-2.5l-0.6-0.7c-0.1-0.1-0.1-0.2-0.1-0.3l-0.2-0.9l-0.1-4.6l0.6-5.3l0.8-3.1
				l3.5-7.8l0.3-1.1l-0.3-0.3l-0.6-0.2c-0.1,0-0.2-0.1-0.3-0.2l-0.5-0.5c-0.1-0.1-0.1-0.1-0.1-0.2l-0.3-0.8c0,0,0-0.1,0-0.2
				l-0.1-0.9l-0.2-0.7l-0.4-0.5l-0.6-0.4l-4.2-1.9c-0.1,0-0.2-0.1-0.3-0.2l-0.5-0.7l-0.5-1.1l-1.9-0.5l-2.7-0.5
				c-0.2,0-0.4-0.2-0.5-0.4c-0.1-0.2-0.1-0.4,0.1-0.6l0.5-0.7c0.1-0.1,0.1-0.2,0.2-0.2l0.7-0.4c0.1,0,0.1-0.1,0.2-0.1l0.6-0.1
				l-0.7-1.1c-0.1-0.2-0.1-0.4,0-0.6c0.1-0.2,0.3-0.3,0.5-0.4l0.6-0.1l0.3-0.2l0.1-0.2l-0.2-0.5l-0.3-1c0-0.1,0-0.2,0-0.3l0.5-1.7
				l-0.4-1c0-0.1,0.7-0.1,0.7-0.2l-0.1-0.4l0-0.8l-0.1-0.3l-0.3-0.2l-0.4-0.2l-0.4-0.3c-0.1-0.1-0.1-0.1-0.2-0.2l-0.3-0.7l-0.2-0.8
				c0-0.1,0-0.1,0-0.2l0-0.8c0-0.1,0-0.2,0.1-0.2l0.3-0.6l-0.8-1.6c-0.1-0.1-0.1-0.2-0.1-0.3l0.1-1.5c0-0.2,0.1-0.4,0.3-0.5l0.5-0.4
				c0.2-0.1,0.4-0.1,0.6-0.1c0.2,0.1,0.3,0.2,0.4,0.5l0.4,2l0.6,0.6c0.1,0.1,0.1,0.2,0.1,0.3l0.1,0.7l0.1,1.7l0.3,1.2l0.9,1.9
				l0.4,1.3l0.2,1.8l0.5,0.7l0.6-0.2l1.5,0.3l1-0.1l0.6-0.6l0.6-1.2l1.6-1.2c0.1-0.1,0.2-0.2,0.3-0.2l1.3-0.5l1.6-0.3l0.4-0.5l0-1
				l-1.2-5.7l-0.6-1.2c0-0.1,0-0.1-0.1-0.2l-0.2-1.1c0-0.1,0-0.2,0-0.4l0.6-1.3l1.3-2.3l-1.1,0.1c-0.1,0-0.1,0-0.2,0l-1-0.1
				c-0.1,0-0.1,0-0.2,0l-1.7-0.8l-18.6,0.6l-0.2,0.4l-0.2,0.6c0,0.1-0.1,0.3-0.2,0.3l-1,0.7c-0.1,0.1-0.2,0.1-0.3,0.1l-1.4,0.1
				l-1-0.1l-1.5,0.5c-0.2,0-0.3,0-0.5-0.1l-1.4-0.8l-0.1,0.2l-0.3,0.4c0,0.1-0.1,0.1-0.1,0.2l-0.4,0.3c-0.1,0.1-0.3,0.1-0.5,0.1
				l-0.4-0.1c-0.1,0-0.1,0-0.2-0.1l-0.9-0.5l-0.3,0l-1,0.4c-0.1,0-0.2,0-0.3,0l-0.5,0c-0.1,0-0.2,0-0.3-0.1l-0.3-0.2
				c-0.1-0.1-0.2-0.2-0.3-0.3l-0.1-0.4c0-0.1,0-0.1,0-0.2l0-0.6l-0.4,0.2l-0.2,0.2c0,0.1-0.1,0.1-0.2,0.2l-0.3,0.2l-0.6,0.3
				l-2.4,0.5l-1.4,0.6l-1.1,0.6l-1.5,1.1l-0.9,1l-1.9,2.7l-1.1,1.2l-5.7,3.1l-3.6,1.2l-1.2,0.2l-0.9,0.4l-0.9,0.8l-0.3,0.6l-0.5,1.5
				l-0.4,0.8c-0.1,0.1-0.2,0.2-0.4,0.3l-1.7,0.5c-0.1,0-0.1,0-0.2,0l-2.7,0l-2-0.2l-1.1-0.3l-5.1-2.4l-4.1-2.6c0,0-0.1-0.1-0.1-0.1
				l-0.4-0.5c-0.1-0.1-0.1-0.2-0.1-0.3l-0.1-0.7l-0.4-0.5l-0.9-0.7l-4.4-2.6l-1.3-1l-1.4-1.5l-0.9-0.8L614,83l-0.6-0.3l-0.5-0.1
				l-1-0.1l-0.8-0.2c-0.1,0-0.1,0-0.2-0.1l-0.4-0.3c0,0-0.1-0.1-0.1-0.1l-0.5-0.5l-0.2,0l-0.9,0.1l-1.8-0.2l-0.8,0.4l-0.2,0.3
				c-0.1,0.1-0.2,0.2-0.3,0.2l-0.9,0.3l-6.4,1.3l-2.5-0.1l-0.6,0.1l-0.9,0.4l-1.3,0.2c-0.1,0-0.1,0-0.2,0l-1.2-0.2l-0.9-0.4
				l-0.4-0.2l-0.5-0.2l-0.8-0.2l-1.7-0.1l-1.4,0.2l-0.2,0.1l-1.3,1l-0.3,0.5l-0.1,0.7l0.3,1.6c0,0.1,0,0.1,0,0.2l-0.1,0.4
				c0,0.1-0.1,0.2-0.1,0.3l-0.4,0.5c-0.1,0.1-0.2,0.2-0.3,0.2l-0.4,0.1c-0.1,0-0.2,0-0.2,0l-0.4,0c-0.1,0-0.1,0-0.2,0l-1.2-0.6
				c0,0-0.1-0.1-0.1-0.1l-0.3-0.3c0,0-0.1-0.1-0.1-0.2l-0.2-0.4l-0.6-2l-0.3-0.4l-0.5-0.2l-0.5-0.1l-2.2-0.2l-0.6-0.1
				c-0.1,0-0.1,0-0.2-0.1l-0.3-0.2l-0.4-0.4c0,0-0.1-0.1-0.1-0.2l-0.2-0.3l-0.3-0.7l-0.2-0.2l-1-0.3l-4.4,0.1l-0.8-0.2
				c-0.1,0-0.2-0.1-0.3-0.1l-0.7-0.5l-1.2-0.5l0.2,0.2l1.7,0.9c0.1,0,0.1,0.1,0.2,0.1l0.2,0.3c0.1,0.1,0.1,0.2,0.1,0.3l0,0.3
				c0,0.2-0.1,0.5-0.3,0.6l-0.5,0.3c-0.1,0-0.1,0.1-0.2,0.1l-0.9,0.3l-3.3,0.5l-0.7,0.3l-0.3,0.4l-1.2,4l-0.8,1.8l-0.6,0.9l-1.2,1.4
				l-1.4,1.9L556,96l-0.3,0.8l-0.2,0.9c0,0.1-0.1,0.2-0.2,0.3l-0.3,0.3c-0.1,0.1-0.3,0.2-0.4,0.2c0,0,0,0,0,0l-0.3,0
				c-0.1,0-0.3-0.1-0.4-0.2l-0.6-0.5l-0.8-0.5l-0.3,0l-0.3,0l-0.6,0.2l-0.6,0.3l-2.8,2l-0.5,0.2l-0.5,0l-0.5-0.1l-0.5-0.1l-0.8-0.1
				l-0.6,0.2l-0.3,0.8l-0.4,0.7c-0.1,0.1-0.2,0.2-0.3,0.3l-0.4,0.2c-0.1,0.1-0.3,0.1-0.4,0l-0.3-0.1c-0.1,0-0.3-0.1-0.4-0.3
				l-0.2-0.3c0-0.1-0.1-0.2-0.1-0.3l-0.2-1.4l-0.3-0.3l-0.3-0.1l-0.4,0l-0.2,0.1l-0.6,1c-0.1,0.1-0.2,0.2-0.3,0.3l-0.4,0.1
				c-0.1,0-0.3,0.1-0.4,0l-0.3-0.1c-0.1,0-0.2-0.1-0.3-0.2l-0.3-0.3l-0.7-1l-0.9-0.7l-1,0.2l-1.1,0.4l-0.8,0.1l-0.7,0
				c-0.1,0-0.2,0-0.3-0.1l-0.3-0.2c0,0-0.1-0.1-0.1-0.1l-0.4-0.4l-0.2,0l-0.4,0.2l-0.7,0.7l-0.7,1l-0.5,0.6l-0.9,0.8l-0.6,0.4
				l-0.6,0.3l-4.2,1.2l-1,0.7l-0.7,0.9l-1.7,1.7l-0.2,0.7l-0.2,1.8c0,0.1,0,0.1,0,0.2l-0.6,1.3l-1.6,2l-0.1,0.5l0.1,0.5l0.4,0.6
				l0.8,0.6l0.3,0.4c0.1,0.1,0.1,0.2,0.1,0.3l0.1,0.4c0,0.1,0,0.1,0,0.2l-0.1,0.5c0,0.1,0,0.1-0.1,0.2l-0.7,1.2l2.1,3.7l0.8,2.5
				l0.1,1l-0.2,1.3c0,0.1,0,0.1-0.1,0.2l-1,1.8c0,0.1-0.1,0.1-0.2,0.2l-2.3,1.8l-0.6,0.3l-0.7,0.2l-2.3,0.3l-3.8,1l-0.6,0.3
				l-0.2,0.8l-0.4,0.7c-0.1,0.2-0.2,0.3-0.4,0.3l-0.3,0.1c-0.1,0-0.3,0-0.4,0l-0.3-0.1c-0.1,0-0.2-0.1-0.2-0.2l-0.3-0.3l-0.8-1.5
				l-0.5-1.2l-0.5-0.9l-0.4-0.4l-0.2-2l-0.4-0.3l-0.3-0.4l-0.2-0.4l-0.2-0.5c0,0,0-0.1,0-0.2l-0.1-1.1l-0.4-0.2c-0.1,0-0.1,0-0.1,0
				l-7.7,0.4c-0.1,0-0.1,0-0.2,0l-0.7-0.2c-0.1,0-0.1,0-0.2-0.1l-0.5-0.3c-0.1,0-0.2-0.1-0.2-0.2l-0.4-0.6l-0.4-0.2l-0.3,0l-0.3,0
				l-0.3,0.1l-1.2,0.8c0,0-0.1,0.1-0.2,0.1l-0.8,0.2l-1,0.2l-4.1,0.6c-0.1,0-0.1,0-0.2,0l-4.6-1.3l-1.4-0.2l-2.4,0.1l-0.7,0
				c-0.1,0-0.1,0-0.2,0l-0.5-0.1c-0.1,0-0.1,0-0.2-0.1l-0.3-0.2l-1.3-1.2l-4-2.6l-1.2-1.1c-0.1,0-0.1-0.1-0.1-0.2l-0.2-0.3l-0.8-1.6
				l-0.2-0.2l-3.3-2l-2.1,1l-0.3,0l-9-0.6c-0.1,0-0.1,0-0.2,0l-1.7-0.3l-2-0.7l-1.6-0.3l-2,0.4l-0.8,0l-1-0.1l-3.4-0.8l-3.6,0.1
				c-0.1,0-0.1,0-0.2,0l-0.9-0.3l-2.6-1.4l-2.5-0.7l-5.2,0.3l-1.7-0.3c-0.1,0-0.2-0.1-0.3-0.1l-0.3-0.2c0,0-0.1-0.1-0.1-0.1
				l-0.5-0.9l-1-0.5l-9.9-3.2l-0.8,0.1l-1.3,0.3l-0.6,0.2l-1.3,0.7l-2.6,0.9l-2,0.3l-0.8,0c-0.1,0-0.1,0-0.2,0l-0.5-0.2
				c-0.1,0-0.1,0-0.2-0.1l-1.3-0.9l-0.3-0.1l-0.2,0l-0.4,0.2l-3.1,0.9l-3.9,0.3l-1.1-0.1l-0.8-0.2c-0.1,0-0.2-0.1-0.2-0.1l-0.3-0.2
				c0,0-0.1-0.1-0.1-0.1l-1-1.3l-0.4-0.3l-2.2-1l-1.3-1l-3.6-2.3l-0.5-0.7l-0.6-0.4l-1-0.6l-4.1-1.4l-0.9-0.2l-1.1,0.1l-0.3,0.1
				l-5.5,3.3l-0.6,0.2l-0.8,0.2l-1.4,0.1l-0.8-0.1l-0.7-0.1c-0.1,0-0.1,0-0.2-0.1l-2.5-1.3l-4.6-1.2l-0.7,0.1l-1.1,0.3
				c-0.1,0-0.2,0-0.3,0l-0.3-0.1l-0.6,2c0,0.1,0,0.1-0.1,0.2l-2.9,4.1l-0.5,2.1l0.8,7.1l0,2.5c0,0.2-0.1,0.4-0.2,0.5l-1.4,1.2
				l-0.1,0.3l0.1,0.6l0.2,0.6c0.3,0.1,0.5,0.4,0.4,0.7l-0.2,1.3l-0.9,2.7l0,1.4l0.3,2.9l-0.1,1.6l-0.5,1.6c0,0.1-0.1,0.2-0.2,0.3
				l-0.5,0.4c-0.1,0.1-0.2,0.1-0.3,0.1l-0.8,0.2l-0.1,0.3l0.2,0.6l0.4,0.3l0.5,0.2c0.1,0,0.1,0,0.2,0.1l0.3,0.2
				c0.1,0.1,0.2,0.3,0.2,0.5l0,0.8c0,0.1,0,0.2,0,0.3l-0.4,0.9l0,0.2l0.5,0c0.1,0,0.2,0,0.2,0.1l0.2,0.1c0.2,0.1,0.3,0.2,0.3,0.4
				l0.8,2.9l0.8,4.7l-0.1,2.5l-0.9,2.9l-3.1,6.6l-0.4,0.6c-0.1,0.1-0.1,0.1-0.2,0.2l-0.5,0.3c-0.1,0-0.2,0.1-0.2,0.1l-1,0.2
				l-0.2,0.7l0.1,2.1l-0.1,1.2c0,0.1,0,0.2-0.1,0.3l-0.3,0.5c0,0.1-0.1,0.1-0.2,0.2l-1,0.7l0,0.1l0.5,0.6c0.1,0.1,0.2,0.3,0.2,0.5
				l0,0.6c0,0.1,0,0.2-0.1,0.3l-0.2,0.3l0.2-0.1l1.6-0.5c0.1,0,0.2,0,0.3,0l0.5,0.1c0.1,0,0.2,0.1,0.3,0.2l0.6,0.6
				c0,0,0.1,0.1,0.1,0.2l0.3,0.7l0.2,0.7l0.4,0.1l0.8,0l0.4-0.1l1.5-0.8l0.7-0.7l0.6-0.4c0.1-0.1,0.2-0.1,0.3-0.1l0.6,0
				c0.2,0,0.3,0,0.5,0.1l1.1,0.9c0.1,0.1,0.2,0.2,0.2,0.3l0.4,1.6l0.1,1.6l0.6-0.2l1.6-1.9c0-0.1,0.1-0.1,0.2-0.1l1.3-0.7
				c0.1-0.1,0.2-0.1,0.4-0.1c0,0,1.7,0.2,1.7,0.3l3.1,1.3l0.5-0.1l0.2-0.9l-0.2-1.8l0-1.8c0-0.2,0.1-0.3,0.2-0.4l1-1
				c0.2-0.2,0.4-0.2,0.6-0.2l0.8,0.2c0.1,0,0.3,0.1,0.4,0.2l0.6,0.7l0.5,0.8l0.2,0l1-0.6c0.1,0,0.1-0.1,0.2-0.1l0.7-0.2l1-0.4
				l0.9-1.1l1.3-2.4c0.1-0.2,0.2-0.3,0.4-0.3c0.2,0,0.4,0,0.5,0.1l2.7,1.9l1.3,0.5l1.8,0.2c0.2,0,0.4,0.2,0.5,0.4l0.4,1
				c0.1,0.1,0.1,0.3,0,0.4l-0.8,2.3l-1.4,2.9l0.6,0.1l3.1-2.1c0,0,0.1-0.1,0.2-0.1l1.8-0.6c0.1,0,0.3,0,0.4,0l0.9,0.3
				c0.1,0,0.2,0.1,0.2,0.1l1.4,1.1l0.4-0.3l0.4-0.8l0.6-2.1c0.1-0.2,0.2-0.4,0.5-0.4c0.2,0,0.5,0,0.6,0.2l1.6,1.8l0.8,0.4l1.1-0.1
				l1-0.7l0.4-0.8l0.2-1.3l-0.3-1.7c0-0.1,0.1-0.2,0.2-0.3l1.1-1c0.1-0.1,0.2-0.1,0.3-0.2l1.4-0.2c0.1,0,0.2,0,0.3,0l1.1,0.3
				c0.3,0.1,0.4,0.3,0.4,0.6l0,0.7c0,0.1,0,0.3-0.1,0.4l-1.1,1.4l-0.3,0.7l-0.1,0.4l1,0.5l-0.1-0.4c0.3-0.2,0.6-0.1,0.8,0.1l1.6,0.9
				c0.1,0.1,0.1,0.2,0.2,0.4l0.1,1.2c0,0.1,0,0.2,0,0.3l-0.4,1.3c0,0.1,0,0.1-0.1,0.2l-0.8,1.1l-0.1,0.2l0.1,0.4l0.2,0.3l0.2,0
				l0.2-0.2l0.2-0.6l0.2-0.7l0.3-0.9l1.4-2.1c0.1-0.2,0.3-0.4,0.6-0.3c0.2,0,0.4,0.2,0.5,0.4l0.3,0.6c0,0.1,0,0.1,0,0.2l0.1,1.3
				l0.4,0.4l0.8-0.3l0.9-0.9l0.8-1c0,0,0.1-0.1,0.1-0.1l0.9-0.7c0.1-0.1,0.3-0.2,0.4-0.1l1.6,0.2c0.2,0,0.4,0.1,0.5,0.3l0.7,1.3
				l0.5,1.4l0.9,0.6l1.6,0.3c0.1,0,0.2,0,0.3,0.1l1.1,0.8l1.7,1.7l0.2-0.3c0.1-0.1,0.2-0.2,0.4-0.2l0.8-0.1c0.2,0,0.4,0,0.5,0.1
				l0.7,0.6c0.1,0.1,0.2,0.2,0.2,0.3l0.4,1.5l0.7-0.8l0.3-0.4c0.1-0.2,0.4-0.4,0.6-0.3l0.9,0.1l1.7,0.5l0.9,0l0.8-0.2l1.8-0.7
				l1.1-0.3l1-0.4l0.7-0.1c0.2,0,0.3,0,0.5,0.1l0.2,0.2c0.1,0,0.1,0.1,0.2,0.2l0.4,0.6l1.7,0.5l0.7,0l0.3-0.4l0.1-0.5l0.4-0.9
				l0.5-0.8c0-0.1,0.1-0.1,0.2-0.2l0.5-0.3c0.1-0.1,0.2-0.1,0.3-0.1h0.6c0.2,0,0.5,0.1,0.6,0.4l0.1,0.3c0,0.1,0.1,0.2,0.1,0.3l0,0.2
				l0.1,0.3l0.5,0.7l0.3,0.7c0,0,0,0,0-0.1l0.2-0.6c0.1-0.2,0.3-0.4,0.6-0.4l0.5,0c0.1,0,0.2,0,0.3,0.1l0.5,0.3
				c0.1,0,0.2,0.1,0.2,0.2l0.2,0.3c0,0.1,0.1,0.1,0.1,0.2l0.1,0.8l0.5,1.5l0.9-0.2l1.2-0.1l0.9,0c0.1,0,0.3,0.1,0.4,0.2l0.5,0.5
				c0,0,0.1,0.1,0.1,0.2l0.4,0.5l0.1,0l-0.4-1.1c0-0.1,0-0.1,0-0.2l0-1.2c0-0.2,0.1-0.3,0.2-0.5l0.8-0.7c0.1-0.1,0.2-0.2,0.4-0.2
				l1.7-0.2c0.1,0,0.2,0,0.2,0l1.5,0.4c0.1,0,0.2,0.1,0.3,0.2l0.7,0.7c0.2,0.2,0.2,0.5,0.1,0.7l-0.4,0.7c-0.1,0.2-0.3,0.3-0.4,0.3
				l-1,0.2l0.5,1.2l0.7,1l0.5,0.2l1.9-2.3l1.6-1.4c0.2-0.2,0.5-0.2,0.8,0l0.7,0.5c0.1,0.1,0.2,0.2,0.2,0.3l0.5,1.2l1.1,0l1.4-0.2
				c0.2,0,0.4,0,0.6,0.2l0.7,0.7c0.1,0.2,0.2,0.4,0.2,0.6l-0.4,1.4l0,0.1l0.5,0.1l4.9-0.1l0.1-0.1c0.1-0.1,0.3-0.1,0.5-0.1
				c0.2,0,0.3,0.1,0.4,0.3l0.1,0.1c0.1,0.1,0.1,0.2,0.1,0.3l0,0.8l0.4,0.9l2.8,0.7c0.2,0,0.3,0.1,0.4,0.3l1,1.5
				c0.1,0.2,0.1,0.5,0,0.7c-0.1,0.2-0.3,0.3-0.6,0.3c0,0,0,0,0,0l-2.3-0.1l-0.6,0.1l3,1.7c0.1,0,0.1,0.1,0.2,0.1l1.5,1.7
				c0.1,0.1,0.1,0.1,0.1,0.2c0.1-0.1,0.3-0.2,0.6-0.2c0.2,0,0.4,0.2,0.5,0.4l0.6,1.3c0,0.1,0,0.1,0,0.2l0.3,2.4l0.6,1l0.4,0.2
				l0.2-0.3l0.5-2.5c0-0.2,0.2-0.4,0.4-0.4c0.2-0.1,0.4-0.1,0.6,0l0.5,0.3c0.1,0,0.1,0.1,0.2,0.1l0.4,0.4c0.1,0.1,0.1,0.2,0.1,0.3
				l0.1,0.6c0,0.1,0,0.3-0.1,0.4l-0.5,0.9l1.4,0.5l1.1,0.2l0.5-0.8l-0.3-1.1c-0.1-0.2,0-0.4,0.1-0.6l0.6-0.7
				c0.1-0.1,0.3-0.2,0.5-0.3l1.2-0.1l1.5,0.1c0.1,0,0.2,0,0.3,0.1l0.6,0.4c0.1,0,0.1,0.1,0.2,0.1l0.7,0.9l0.2-0.1l0.8-1.3l0.6-0.7
				c0.1-0.1,0.2-0.2,0.3-0.2l0.8-0.3c0.1,0,0.3,0,0.4,0l0.8,0.2c0.2,0.1,0.4,0.2,0.4,0.4l0.2,0.6c0,0.1,0,0.1,0,0.2l0,0.6l0.2,0.3
				l0.5,0.3l0.1-0.1l0.7-0.9c0.1-0.1,0.2-0.2,0.3-0.2l0.8-0.2c0.3-0.1,0.6,0,0.7,0.3l0.5,0.9c0,0.1,0.1,0.1,0.1,0.2l0.2,1.4l0,0.7
				l1.8-0.8c0.3-0.1,0.6,0,0.8,0.2l0.3,0.3c0.1,0.2,0.2,0.4,0.1,0.6l-0.5,1.9l0.7,0.6l0.9-0.1l1.3-0.5l1.5-0.4c0.1,0,0.1,0,0.2,0
				l2,0.2c0.1,0,0.3,0.1,0.4,0.2l0.7,0.7c0.1,0.1,0.1,0.2,0.2,0.3l0.3,1.2l0.6,1.4l0.4,0.4l0.5,0.1l0.6,0.1c0.1,0,0.1,0,0.2,0.1
				l1.5,1.2c0.1,0,0.2,0.1,0.2,0.2l0.4,0.6c0,0.1,0.1,0.2,0.1,0.2l0.2,1l1.4-1.4c0.1-0.1,0.1-0.1,0.2-0.1l1-0.4c0.2,0,0.3,0,0.5,0
				c0.2,0.1,0.3,0.2,0.3,0.4l0.5,1.3l0.4,1.7l0.6,0.2l1.1-0.1c0.1,0.1,0.3,0,0.3,0.1l1.1,0.7c0.2,0.1,0.3,0.2,0.3,0.4l0.2,0.7
				c0,0.1,0,0.2,0,0.3l-0.2,0.8l-0.3,0.8l0,0l1.1,0.5c0,0,0.1,0,0.1,0.1l0.6,0.5l2.4,2.7l0.4,0.2l0.4-0.1l0.5-0.3c0.1,0,0.1,0,0.2,0
				l0.6-0.1c0.1,0,0.3,0,0.4,0.1l1.1,0.6c0.1,0,0.1,0.1,0.1,0.1l1.6,1.6l1.8,0.6c0.1,0,0.2,0.1,0.2,0.1l0.4,1.8l1.4,0.3
				c0.2,0,0.3,0.2,0.4,0.3l0.2,0.4c0,0.1,0.1,0.2,0.1,0.2l0,0.4l0.2,0.5l1.6,2.4l2.6,5l1.6,1.4l1.1-0.4c0.2-0.1,0.4,0,0.6,0.1
				l1.3,0.9c0,0,0.9-0.7,0.9-0.6l2.1,2.8l2,2.1c0.1,0.1,0.1,0.1,0.1,0.2l0.4,1c0,0.1,0,0.1,0,0.2l0,1.6c0,0.1,0,0.2-0.1,0.3
				l-0.7,1.1l0.6,0.1c0.1,0,0.2,0.1,0.2,0.1l0.5,0.4c0.1,0.1,0.2,0.3,0.2,0.4l0.1,1l0,1.1l0.1,0.4l0.4,0.2l0.2-0.1l0.4-0.4
				c0,0,0.1-0.1,0.1-0.1l0.5-0.3c0.2-0.1,0.4-0.1,0.6,0l0.7,0.4c0.1,0,0.2,0.1,0.2,0.2l0.7,0.7l0.5-0.2c0.3-0.1,0.6-0.1,0.8,0.2
				l1.3,1.7c0,0.1,0.1,0.1,0.1,0.2l1.4,4.7l0.6,1.5l0.6,0.5l1.8,0.9l0.8,0.6c0.1,0,0.1,0.1,0.1,0.2l0.4,0.6l1.1,2.1l2.3,3.2l1.4,2.6
				l0.5,0.2l2.2,0.7c0.1,0,0.1,0.1,0.2,0.1l2.5,1.9l0.4-0.3c0,0,0.1-0.1,0.2-0.1l1-0.4l1.2-0.2l1.2,0.1c0.1,0,0.1,0,0.2,0l0.8,0.3
				c0,0,0.1,0,0.1,0.1l1.6,1.1l4,0.2c0.1,0,0.1,0,0.2,0l1.9,0.7c0.1,0,0.3,0.1,0.3,0.3l0.5,0.8l0.5-0.3c0.1,0,0.1-0.1,0.2-0.1
				l0.9-0.2c0.1,0,0.1,0,0.2,0l7.1,0.9c0.1,0,0.1,0,0.2,0l1.3,0.6c0.1,0,0.1,0.1,0.2,0.1l1.6,1.6l0.7,0.4l0.4,0l0.1-0.4l0-1.2
				c0-0.1,0-0.3,0.1-0.4l0.7-1c0.1-0.2,0.3-0.3,0.5-0.3h0l0.8,0c0.2,0,0.5,0.2,0.6,0.4l0.3,0.8l0.3,1.1l0.4,0l1.5,0.4l1.5,0.2
				l0.7,0.2l0.4,0l0.7-0.2l1.5-1.2c0,0,0.1-0.1,0.2-0.1l2-0.8c0.1,0,0.2-0.1,0.3,0l0.7,0.1c0.1,0,0.2,0.1,0.3,0.1l0.8,0.6l0.6,0.6
				l0,0c0.1-0.1,0.2-0.1,0.3-0.2l0.9-0.2l2.4-1c0.1,0,0.1,0,0.2,0l0.7-0.1c0.2-0.1,0.3,0,0.4,0.1l0.6,0.5c0.1,0,0.1,0.1,0.2,0.2
				l0.4,0.7l0.4,0.8l0.4,0.6l0.7,0.5l1.1,0.3l2.1,0.1l0.1-0.1l0.2-0.7l0.4-0.8c0.1-0.2,0.2-0.3,0.4-0.4l0.7-0.1
				c0.3,0,0.5,0.1,0.7,0.3l0.3,0.5l1.1,2.7l1.8,1.3c0.1,0,0.1,0.1,0.2,0.2l0.2,0.2c0.1,0.2,0.1,0.5,0,0.7l-0.2,0.3l-0.6,0.7l0.1,0.9
				l1.3,2.5c0.1,0.1,0.1,0.3,0,0.5l-0.3,1.1c0,0.1-0.1,0.3-0.3,0.3l-0.8,0.6c-0.1,0-0.1,0.1-0.2,0.1l-0.5,0.1c-0.1,0-0.1,0-0.2,0
				l-0.5,0l-0.5-0.1l-0.5-0.2l-1.1-0.6l-0.3,0l-0.5,0.1l-0.5,0.3l-0.7,0.7l-2.1,4.2l-0.7,1l-0.7,0.7c-0.1,0.1-0.2,0.1-0.3,0.1
				l-1.1,0.4l-0.8,0.4l-1.1,1.5c0,0.1-0.1,0.1-0.2,0.2l-0.4,0.2c-0.1,0.1-0.3,0.1-0.4,0.1l-0.3,0c-0.2,0-0.4-0.2-0.5-0.4l-0.1-0.3
				c0,0,0-0.1,0-0.1l0,0l0.1,0.8l0.1,0.4l0.1,0.6c0,0.1,0,0.2,0,0.3l-0.1,0.5c0,0.1,0,0.1-0.1,0.2l-0.4,0.6l-0.5,0.5l-1.1,1
				l-0.1,0.5l-0.5,2.9l-0.1,1.9l1.1,7.4c0,0.1,0,0.1,0,0.2l-0.1,0.8l-0.3,1l-1.1,2.8l-0.4,1.9c0,0.1,0,0.1-0.1,0.2l-0.4,0.7
				l-1.5,1.7l-0.1,0.3l0,0.7l0.1,1c0,0.1,0,0.1,0,0.2l-0.1,0.5c0,0.1,0,0.2-0.1,0.2l-0.2,0.4c-0.1,0.1-0.2,0.2-0.3,0.3l-0.5,0.2
				c-0.1,0-0.2,0.1-0.3,0l-0.7-0.2l-0.1,0.1l-0.2,0.4c0,0-0.1,0.1-0.1,0.1l-0.3,0.3c-0.1,0.1-0.2,0.1-0.4,0.2l-0.3,0
				c-0.2,0-0.3,0-0.5-0.2l-0.3-0.2c0,0-0.1-0.1-0.1-0.2l-0.2-0.4l-0.5-0.9l0,0l-0.3,0.5l-0.4,1.1l-0.6,1.2l-1,1.4l-2.4,2.2l-1.5,1
				l-0.1,0.3l0,0.5l0.2,1.3l0.1,1.6c0,0,0,0.1,0,0.2l-0.5,2.8l0.1,0.7l0.1,0.3l0.8,0.6l0.5,0.3l3.5,1c0.1,0,0.1,0.1,0.2,0.1l0.5,0.4
				l0.6,0.6l1.1,1.5l0.1,0.1l0.1,0l0.2-0.2l0.3-0.9l0.1-0.6l-0.1-0.8l-0.4-1l-0.7-0.7l-2.4-1.9l-0.4-0.4c0,0-0.1-0.1-0.1-0.1
				l-0.2-0.4c0-0.1-0.1-0.2-0.1-0.3v-0.4c0-0.2,0.1-0.3,0.2-0.4l0.4-0.4c0,0,0.1-0.1,0.2-0.1l0.7-0.3l3.3-0.7l0.6-0.2l1.9-1.1
				c0.1,0,0.1,0,0.2,0l0.4,0l1.1,0l0,0l0.3-0.8c0-0.1,0.1-0.2,0.1-0.2l0.3-0.4l0.4-0.3c0.1-0.1,0.3-0.1,0.4-0.1l1.8,0.2
				c0.1,0,0.1,0,0.2,0l4.1,1.7l0.6,0.4l0.7,0.6l2.9,3.4l1.1,0.6l2,0.6l1.1,0.2c0.1,0,0.1,0,0.2,0.1l0.5,0.3c0.1,0.1,0.2,0.2,0.2,0.3
				l0.3,0.7c0,0,0,0.1,0,0.2l0.1,0.9l0.2,0.2l0.5,0l11.1-15.4l14.7-16.3l20-16.3l5.6-3.4l1.4-1.5l1.1-0.9c0.1,0,0.1-0.1,0.2-0.1
				l2-0.6l1.1-1.1c0,0,0.1-0.1,0.2-0.1l0.9-0.2l3.1-0.4l0.5-0.2l0.5-0.7l0.7-1.5l2.2-2.9l0.6-1.2l0,0l-0.5,0.5
				c-0.2,0.2-0.4,0.2-0.7,0.1l-0.8-0.3c-0.1,0-0.1-0.1-0.2-0.1l-0.7-0.6l0.1-0.7l-2.3-1.3c0,0-0.1-0.1-0.1-0.1l-0.9-1.1
				c-0.1-0.1-0.1-0.3-0.1-0.4l0.2-1l0.3-0.8l0.7-1.3l0-0.1l-0.7,0.1l-0.9,0c-0.2,0-0.4-0.1-0.5-0.3l-0.3-0.6
				c-0.1-0.1-0.1-0.3-0.1-0.4l0.2-0.7c0-0.1,0.1-0.2,0.2-0.3l0.6-0.6l0.1-0.4l-0.1-0.7l-0.7-1.6c0-0.1,0-0.1,0-0.2l-0.1-1
				c0-0.1,0-0.2,0-0.3l0.7-2c0.1-0.3,0.4-0.5,0.7-0.4l1,0.2c0.1,0,0.2,0.1,0.3,0.2l1.1,1.1l0.8,0.6l2,2c0.1,0.1,0.1,0.2,0.2,0.3
				l0.3,0.9c0,0.1,0,0.2,0,0.4l-0.3,0.9l-0.7,1.3l-0.2,1.6l0.3,1.5l0.6,1.4l0.8,1.1l0.3,0.1l0.2-0.1l0.1-0.4l-0.2-0.6l-0.2-0.9
				c0-0.1,0-0.3,0-0.4l0.4-1l1-1.9l0.8-2.8l0.5-1.1c0-0.1,0.1-0.1,0.1-0.2l1.1-2.2l0.1-0.3V260l0.2-2l0.2-0.9c0-0.1,0.1-0.2,0.2-0.3
				l2.6-2.4l0.7-0.8l-1-1c-0.1-0.1-0.2-0.3-0.2-0.5l0.1-1.8l0.9-3.5l0.5-3.2l0.8-2.5l0.1-0.6c0-0.1,0-0.1,0.1-0.2l0.2-0.4
				c0-0.1,0.1-0.1,0.2-0.2l0.8-0.8l0.1-0.5l-0.1-0.8l-0.2-0.4l-0.2-0.2l-0.3-0.6c0-0.1-0.1-0.1-0.1-0.2l-0.2-1.6c0-0.1,0-0.1,0-0.2
				l0.7-4.6l0.5-1.4l2.1-3.8l0.2-0.8l-0.3,0c-0.1,0-0.1,0-0.2,0l-0.6-0.2c-0.2-0.1-0.3-0.2-0.4-0.4l-0.3-0.8c-0.1-0.2,0-0.4,0.1-0.6
				l0.2-0.3c0.1-0.1,0.2-0.2,0.3-0.2l0.7-0.3l-1.3-0.3l-1.6-3.1c-0.1-0.1-0.2-0.3-0.3-0.4c0-0.2,0-0.3,0.1-0.5l0.5-0.6l0.8-0.7
				l0-0.1l-0.9-1.2l-0.3-0.6c0-0.1-0.1-0.2-0.1-0.2l-0.1-1.5l-0.2-1.5l-0.4-1.4l-0.6-1c-0.1-0.2-0.1-0.5,0-0.7l0.9-1.2l1.5-1.6
				c0,0,0.1-0.1,0.1-0.1l1.4-0.9c0.1-0.1,0.3-0.1,0.5-0.1c0.1,0,0.2,0.1,0.3,0.2l0.1-0.2l-0.1-1l-0.5-0.7l-1.2-0.3
				c-0.2,0-0.3-0.2-0.4-0.4l-2.6-6.2c0-0.1-0.1-0.2,0-0.3l0.2-1.5c0-0.1,0-0.1,0.1-0.2l0.5-1.1c0-0.1,0.1-0.1,0.1-0.2l0.8-0.8l1-0.7
				l0.9-0.4l0.8-0.2l0.3-0.2l0.2-0.7l0-0.7l0.2-0.8l0.3-0.7l0.4-0.8c0.1-0.2,0.3-0.4,0.6-0.3c0.1,0,0.1,0,0.2,0l-0.1-1.3l-0.4-1.1
				l-0.6-0.7l-2.5-0.5c-0.2,0-0.3-0.2-0.4-0.3l-0.2-0.5c0,0,0-0.1,0-0.2l-0.5-3v-1.2l0.1-0.7c0-0.1,0-0.1,0.1-0.2l0.3-0.5l0.6-0.8
				l2.6-2.2c0.1-0.1,0.2-0.1,0.3-0.2l0.6-0.2l1.2-0.8c0.1-0.1,0.2-0.1,0.3-0.1l0.7,0c0.1,0,0.2,0,0.4,0.1l0.9,0.5
				c0.1,0.1,0.2,0.1,0.2,0.2l0.4,0.7c0.1,0.2,0.1,0.4,0,0.5l-0.3,0.6c0,0,0,0.1-0.1,0.1l0,0l0.9-0.3l0-0.6l-0.6-1.8
				C710.6,170.7,710.7,170.4,711,170.3z M624.5,340.6l-0.4-0.5c-0.1-0.1-0.1-0.2-0.1-0.3l-0.1-1l-0.2-0.5l-0.2-0.1l-0.4-0.1
				l-0.6-0.1l-2.3-0.7l-1.3-0.7c-0.1,0-0.1-0.1-0.2-0.1l-2.9-3.4l-1-0.7l-3.9-1.6l-1.5-0.1l-0.3,0.2l-0.3,0.9c0,0.2-0.1,0.3-0.3,0.4
				l-0.4,0.2c-0.1,0-0.2,0.1-0.3,0.1h0l-1.2,0l-0.2,0l-0.3,0.1l-1.4,0.9l-0.8,0.3l-3.3,0.7l-0.6,0.4l0.1,0.2l0.2,0.2l2.4,1.8
				l0.9,0.9l0.3,0.5l0.5,1.3l0.1,0.7l-0.1,0.8c0,0.1,0,0.1,0,0.2l-0.4,1.1c0,0.1-0.1,0.2-0.2,0.3l-0.5,0.4c-0.1,0.1-0.2,0.1-0.3,0.1
				l-0.4,0.1c-0.1,0-0.3,0-0.4-0.1l-0.4-0.2c0,0-0.1-0.1-0.1-0.1l-0.3-0.3l-1-1.4l-0.4-0.5l-0.3-0.2l-3.5-1l-0.7-0.4l-1-0.7
				c-0.1-0.1-0.1-0.1-0.2-0.2l-0.2-0.5c0,0,0-0.1-0.1-0.2l-0.1-0.5l0-0.6l0.1-0.6l0.4-2.3l-0.1-1.5l-0.2-1.3c0,0,0-0.1,0-0.2l0-0.7
				c0-0.1,0-0.1,0.1-0.2l0.2-0.5c0-0.1,0.1-0.2,0.2-0.2l0.3-0.3l1.4-0.9l2.2-2l0.9-1.2l0.5-1l0.4-1.1l0.3-0.7c0-0.1,0.1-0.1,0.1-0.2
				l0.3-0.3c0.1-0.1,0.3-0.2,0.4-0.2h0.1l0.4,0c0.1,0,0.2,0,0.3,0.1l0.3,0.2c0.1,0,0.1,0.1,0.2,0.2l0.2,0.3l0.4,1l0.2-0.4l0.4-0.4
				c0.1-0.1,0.3-0.2,0.4-0.2l0.3,0c0.1,0,0.2,0,0.2,0l0.4,0.1l0.2-0.1l0-0.2l-0.1-1l0-0.9c0,0,0-0.1,0-0.2l0.2-0.8
				c0-0.1,0.1-0.1,0.1-0.2l1.4-1.5l0.3-0.5l0.4-1.9l1.3-3.7l0.1-0.6l-1.1-7.4l0.1-2l0.7-3.7c0-0.1,0-0.1,0.1-0.2l0.3-0.5l0.3-0.3
				l1.1-0.9l0.3-0.6l-0.2-0.8l-0.1-1c0-0.1,0-0.1,0-0.2l0.1-0.5l0.3-0.5c0-0.1,0.1-0.1,0.2-0.2l0.3-0.2c0,0,0.1-0.1,0.2-0.1l0.3-0.1
				c0.1-0.1,0.3-0.1,0.4,0l0.3,0.1c0.2,0.1,0.4,0.2,0.4,0.4l0.1,0.3c0,0.1,0,0.2,0,0.3l0,0.1l0.8-1.2c0-0.1,0.1-0.1,0.1-0.1l0.3-0.2
				l1.2-0.6l0.8-0.2l0.5-0.5l0.6-0.9l2.4-4.6l1-0.9l1-0.4l0.6-0.1l0.6,0.1l0.5,0.2l1.1,0.6l0.6,0.1l0.3-0.1l0.6-0.4l0.2-0.6
				l-1.3-2.4c0-0.1-0.1-0.1-0.1-0.2l-0.1-1.3c0-0.1,0-0.2,0.1-0.3l0.2-0.3c0,0,0.1-0.1,0.1-0.1l0.4-0.4l-1.6-1.1
				c-0.1-0.1-0.2-0.1-0.2-0.2l-0.4-0.7l-0.8-2l-0.2,0.4l-0.2,0.8c0,0.1-0.1,0.2-0.2,0.3l-0.4,0.4c-0.1,0.1-0.3,0.2-0.5,0.2l-2.5-0.2
				l-1.3-0.3c-0.1,0-0.1,0-0.2-0.1l-0.9-0.6c-0.1,0-0.1-0.1-0.2-0.2l-0.5-0.8l-0.7-1.3l-0.3-0.2l-0.4,0l-2.4,1l-0.8,0.2l-0.2,0.2
				c-0.1,0.1-0.3,0.3-0.5,0.2l-0.3,0c-0.2,0-0.3-0.1-0.5-0.2l-0.8-0.9l-0.6-0.5l-0.3,0l-1.7,0.7l-1.6,1.2c-0.1,0-0.1,0.1-0.2,0.1
				l-0.9,0.3c-0.1,0-0.1,0-0.2,0l-0.7,0l-0.8-0.2l-1.5-0.2l-1.5-0.4l-0.6-0.1c-0.2,0-0.4-0.1-0.5-0.3l-0.3-0.5
				c0-0.1-0.1-0.1-0.1-0.2l-0.3-1.2h-0.1l-0.4,0.6l0,1.1l-0.1,1c0,0.3-0.3,0.5-0.6,0.6l-1.2,0c-0.1,0-0.2,0-0.3-0.1l-1-0.6l-1.7-1.6
				l-1.1-0.5l-6.9-0.9l-0.7,0.2l-1,0.6c-0.1,0.1-0.3,0.1-0.5,0.1c-0.2,0-0.3-0.1-0.4-0.3l-0.7-1.2l-1.6-0.6l-4.1-0.2
				c-0.1,0-0.2,0-0.3-0.1l-0.4-0.2l-1.4-1l-0.7-0.2l-1-0.1l-0.9,0.1l-0.7,0.3l-0.8,0.6c-0.2,0.2-0.5,0.2-0.8,0l-2.8-2.1l-2.2-0.7
				l-0.7-0.4c-0.1-0.1-0.2-0.1-0.2-0.2l-0.3-0.5l-1.2-2.3l-2.3-3.2l-1.4-2.6l-0.6-0.5l-1.8-0.9l-0.9-0.7c-0.1-0.1-0.1-0.1-0.2-0.2
				l-0.7-1.7l-1.4-4.7l-0.9-1.2l-0.4,0.2c-0.2,0.1-0.5,0.1-0.7-0.1l-0.6-0.4c0,0-0.1-0.1-0.1-0.1l-0.4-0.6l-0.3-0.1l-0.2,0.1
				l-0.5,0.4c-0.1,0.1-0.1,0.1-0.2,0.1l-0.7,0.2c-0.2,0.1-0.4,0-0.6,0l-0.9-0.6c-0.1-0.1-0.3-0.2-0.3-0.4l-0.1-0.7c0,0,0-0.1,0-0.2
				l0-1.1l0-0.7l-0.2-0.2l-0.9-0.2c-0.3-0.1-0.5-0.3-0.5-0.6l0-0.7c0-0.1,0-0.2,0.1-0.3l0.7-1.1l0-1.3l-0.3-0.8l-1.9-2.1l-2.9-2
				l-0.9-0.7l-1.1,0.4c-0.2,0.1-0.4,0-0.6-0.1l-2-1.7c-0.1-0.1-0.1-0.1-0.1-0.2l-2.7-5.1l-1.6-2.4l-0.3-0.6c0-0.1,0-0.1-0.1-0.2
				l0-0.4l-1.3-0.3c-0.1,0-0.2-0.1-0.3-0.1l-0.4-1.8l-1.8-0.6c-0.1,0-0.2-0.1-0.3-0.2l-1.6-1.7l-0.9-0.5l-0.3,0l-0.5,0.3l-0.8,0.2
				c-0.1,0-0.3,0-0.4,0l-0.7-0.3c-0.1,0-0.2-0.1-0.2-0.2l-2.4-2.7l-0.4-0.3l-1.1-0.5c-0.1,0-0.1-0.1-0.2-0.1l-0.3-0.3
				c-0.2-0.2-0.2-0.4-0.2-0.6l0.1-0.4l0.3-0.8l0.1-0.6l-0.1-0.3l-0.8-0.4l-1.1,0.1c-0.1,0-0.2,0-0.3,0l-1-0.4
				c-0.2-0.1-0.4-0.3-0.4-0.5l-0.4-2l-0.2-0.6l-0.3,0.1l-1.8,1.7c-0.1,0.1-0.3,0.2-0.4,0.2c0,0,0,0,0,0c-0.2,0-0.3-0.1-0.4-0.2
				l-0.6-0.6c-0.1-0.1-0.9-0.9-0.9-1l-0.3-1.2l-0.2-0.4l-0.5-0.3l-0.5-0.1l-0.7-0.2c-0.1,0-0.2-0.1-0.3-0.2l-0.6-0.6
				c-0.1,0-0.1-0.1-0.1-0.2l-0.7-1.6l-0.2-1.1l-0.4-0.4l-1.7-0.2l-1.2,0.3l-1.3,0.5c-0.1,0-0.1,0-0.2,0l-1.2,0.1
				c-0.2,0-0.4-0.1-0.5-0.2l-1.1-1c-0.1-0.1-0.2-0.3-0.2-0.5l0-0.7l0.3-1.1L494,199c-0.2,0.1-0.5,0.1-0.7-0.1l-0.4-0.3
				c-0.1-0.1-0.2-0.3-0.2-0.5l-0.1-1.2l-0.2-1.2l-0.2-0.4l-0.1,0l-0.7,1.1c-0.1,0.2-0.3,0.3-0.5,0.3l-0.4,0c-0.1,0-0.3,0-0.4-0.1
				l-0.9-0.6c-0.1-0.1-0.2-0.1-0.2-0.2l-0.3-0.6c0-0.1-0.1-0.2-0.1-0.3l-0.1-0.8l-0.3-0.1l-0.4,0.1l-0.4,0.5l-0.9,1.4
				c-0.1,0.1-0.2,0.2-0.3,0.3l-0.7,0.3c-0.2,0.1-0.5,0-0.7-0.1l-0.6-0.5l-0.6-0.8l-0.3-0.2l-1.2-0.1l-0.8,0.1l-0.2,0.3l0.5,1.6
				c0.1,0.2,0,0.4-0.1,0.6c-0.1,0.2-0.3,0.2-0.5,0.3l-1.5,0.7l-1.3-0.2l-1.8-0.7c-0.1,0-0.2-0.1-0.3-0.3l-0.1-0.2l-0.5,0.7
				c-0.2,0.3-0.5,0.4-0.8,0.2l-1-0.5c-0.1-0.1-0.2-0.1-0.3-0.3l-0.7-1.3c0-0.1-0.1-0.1-0.1-0.2l-0.3-2.4l-0.1-0.3l-0.7,0.5
				c-0.1,0-0.1,0.1-0.2,0.1l-0.8,0.2c-0.1,0-0.3,0-0.4,0l-0.8-0.3c-0.2-0.1-0.4-0.3-0.4-0.5c0-0.2,0.1-0.5,0.3-0.6l1.2-0.9l-1-1.1
				l-4.1-2.3c-0.2-0.1-0.3-0.3-0.3-0.6c0-0.2,0.1-0.4,0.4-0.5l1-0.5c0.1,0,0.1,0,0.2-0.1l1.1-0.1l1.1,0l-0.2-0.3l-2.8-0.7
				c-0.2,0-0.3-0.2-0.4-0.3l-0.6-1.3c0-0.1-0.1-0.2-0.1-0.3v-0.3l-4.9,0.1c0,0-0.1,0-0.2,0l-0.9-0.2c-0.2-0.1-0.4-0.2-0.5-0.5
				l-0.1-0.6c0-0.1,0-0.2,0-0.3l0.3-1.2l-0.2-0.2l-1.1,0.2l-1.6,0c-0.3,0-0.5-0.2-0.6-0.4l-0.6-1.5l-0.1-0.1l-1.1,1l-2.1,2.6
				c-0.2,0.2-0.5,0.3-0.7,0.2l-1.1-0.5c-0.1,0-0.2-0.1-0.3-0.2l-0.9-1.3l-0.6-1.5c0-0.1,0-0.1,0-0.2l0-0.6c0-0.3,0.2-0.6,0.5-0.7
				l1.3-0.3l-0.3-0.3l-1.2-0.3l-1.4,0.1l-0.4,0.4l0,0.8l0.6,1.6c0.1,0.2,0,0.3,0,0.5c-0.1,0.1-0.2,0.3-0.4,0.3l-1,0.4
				c-0.2,0.1-0.4,0-0.6-0.1l-0.5-0.3c-0.1-0.1-0.2-0.1-0.2-0.2l-0.3-0.5l-0.3-0.3l-0.5,0l-1,0.1l-0.8,0.2l-0.3,0.3
				c-0.2,0.2-0.4,0.2-0.6,0.1c-0.2-0.1-0.4-0.2-0.4-0.5l-0.1-0.7l-0.6-1.7l-0.2-0.8l-0.1-0.1l0.1,0.4c0,0.1,0.1,0.1,0.1,0.2l0,0.4
				c0,0.1,0,0.2,0,0.2l-0.3,0.8c-0.1,0.2-0.2,0.4-0.5,0.4c-0.2,0-0.4,0-0.6-0.2l-0.8-0.8c-0.1-0.1-0.1-0.1-0.1-0.2l-0.7-1.7
				l-0.5-0.7l-0.2-0.5c0-0.1,0-0.1,0-0.2l-0.2,0.1l-0.4,0.6l-0.3,0.7l-0.1,0.5c0,0.1,0,0.1-0.1,0.2l-0.5,0.8
				c-0.1,0.2-0.3,0.3-0.5,0.3l-1.2,0h0c-0.1,0-0.1,0-0.2,0l-1.9-0.6c-0.1,0-0.1,0-0.2-0.1l-0.2-0.2c-0.1,0-0.1-0.1-0.2-0.2l-0.3-0.6
				l-0.3,0l-1,0.4l-1.2,0.3l-1.8,0.7l-1,0.2c0,0-0.1,0-0.2,0l-1.1,0l-2.1-0.5l-0.1,0.2l-0.8,1c-0.1,0.1-0.1,0.1-0.2,0.2l-0.8,0.4
				c-0.2,0.1-0.4,0.1-0.5,0c-0.2-0.1-0.3-0.2-0.4-0.4l-0.3-1l-0.3-1.1l-0.3-0.2l-0.3,0l-0.5,0.7c-0.1,0.1-0.3,0.2-0.5,0.3
				c-0.2,0-0.4-0.1-0.5-0.2L412,175l-0.9-0.6l-1.6-0.3c-0.1,0-0.2,0-0.2-0.1l-1.2-0.7c-0.1-0.1-0.2-0.2-0.3-0.3l-0.5-1.5l-0.5-0.9
				l-1.1-0.1l-0.6,0.5l-0.8,1l-1,1.1c-0.1,0.1-0.2,0.1-0.3,0.2l-1.4,0.4c-0.2,0.1-0.5,0-0.6-0.1l-0.9-0.9c-0.1-0.1-0.2-0.3-0.2-0.4
				l0-0.7l-0.5,0.8l-0.2,0.7l-0.2,0.7l-0.3,0.8c0,0.1-0.1,0.2-0.2,0.3l-0.6,0.4c-0.1,0.1-0.3,0.1-0.5,0.1l-0.7-0.1
				c-0.1,0-0.3-0.1-0.4-0.2l-0.5-0.6c-0.1-0.1-0.1-0.1-0.1-0.2l-0.2-0.7c0-0.1,0-0.2,0-0.3l0.1-0.5c0-0.1,0.1-0.1,0.1-0.2l0.8-1.1
				l0.3-1.1l-0.1-0.9l-0.3-0.4l-0.5,0.3c-0.1,0.1-0.2,0.1-0.4,0.1l-0.6-0.1c-0.2,0-0.4-0.2-0.5-0.4l-1.2-1c0-0.1-0.1-0.2,0-0.4
				l0.1-0.7c0-0.1,0-0.1,0.1-0.2l0.4-0.8l1-1.3l-0.5-0.2l-1.1,0.2l-0.8,0.8l-0.4,1.4l0.6,1.2c0,0.1,0,0.1,0,0.2l-0.5,1.1
				c0,0.1-0.1,0.2-0.2,0.3l-1.3,0.8c-0.1,0-0.2,0.1-0.3,0.1l-1.5,0.2c-0.1,0-0.2,0-0.4-0.1l-1.1-0.5c-0.1,0-0.1-0.1-0.2-0.1l-1-1
				l-0.3,1.2l-0.5,1.1c0,0.1-0.1,0.2-0.2,0.2l-0.8,0.6c-0.2,0.1-0.4,0.1-0.6,0.1l-0.6-0.2c-0.1,0-0.2-0.1-0.2-0.1l-1.3-1.1l-0.6-0.2
				l-1.5,0.5l-3.2,2.2c-0.1,0.1-0.3,0.2-0.4,0.1l-1.7-0.2c-0.2,0-0.4-0.1-0.5-0.3c-0.1-0.2-0.1-0.4,0-0.6l1.8-3.6l0.7-2L376,166
				l-1.5-0.2c-0.1,0-0.1,0-0.2,0l-1.4-0.5c0,0-0.1,0-0.1-0.1l-2.1-1.5l-1,1.9l-1.1,1.3c-0.1,0.1-0.2,0.1-0.2,0.2l-1.3,0.5l-0.7,0.2
				l-1,0.6c-0.1,0-0.1,0.1-0.2,0.1l-0.6,0.2c-0.2,0.1-0.4,0-0.6-0.1l-0.4-0.4c-0.1,0-0.1-0.1-0.1-0.2l-0.4-0.8l-0.4-0.5l-0.2,0
				l-0.6,0.6l0,1.5l0.2,1.8c0,0.1,0,0.1,0,0.2l-0.3,1.4c0,0.2-0.2,0.4-0.5,0.5l-1.1,0.3c-0.1,0-0.3,0-0.4,0l-3.3-1.3l-1.3-0.2
				l-1,0.6l-1.7,2c-0.1,0.1-0.2,0.2-0.3,0.2l-1.5,0.4c-0.2,0.1-0.4,0-0.5-0.1c-0.2-0.1-0.3-0.3-0.3-0.5l-0.1-2.3l-0.4-1.3l-0.8-0.6
				l-0.2,0l-0.3,0.2l-0.7,0.7c0,0-0.1,0.1-0.1,0.1l-1.6,0.9c0,0-0.1,0-0.2,0.1l-0.6,0.1l-1,0.1c-0.1,0-0.1,0-0.2,0l-0.7-0.2
				c-0.2,0-0.3-0.1-0.4-0.3l-0.3-0.4c0-0.1-0.1-0.1-0.1-0.2l-0.1-0.6l-0.2-0.5l-0.4-0.4l-0.2,0l-1.3,0.4l-0.5,0.2l-0.4,0.3l-0.6,0.4
				c-0.1,0-0.1,0.1-0.2,0.1l-0.7,0.1c-0.3,0.1-0.7-0.1-0.7-0.5l0-0.2l-0.3-0.3c0,0-0.1-0.1-0.1-0.2l-0.6-1.3l-0.6-1l-0.4-0.2
				l-0.1,0.1l-0.6,2.3c0,0.1-0.1,0.2-0.1,0.3l-0.7,0.8c-0.1,0.2-0.3,0.2-0.6,0.2l-1.1-0.2c-0.1,0-0.2-0.1-0.3-0.2l-1.4-1.2l-0.3,0.2
				l-0.1,0.6l0.3,0.9c0,0.1,0,0.2,0,0.2l0,0.8c0,0.3-0.2,0.5-0.5,0.6l-1.4,0.3c-0.1,0-0.2,0-0.3,0l-0.5-0.1c-0.1,0-0.2-0.1-0.3-0.1
				l-0.3-0.3l-0.1,0l-0.2,0.2l-0.5,1.3c0,0.1-0.1,0.1-0.1,0.2l-5.2,5.7c-0.1,0.1-0.2,0.2-0.4,0.2l-2.5,0.3c-0.1,0-0.2,0-0.3,0
				l-2.1-0.7c-0.3-0.1-0.4-0.4-0.4-0.7l0.1-1.4l-0.6-0.5l-0.5,0.8l-1.9,5.2l-0.3,0.7l-0.4,0.5l-0.2,0.4l0.1,1.5c0,0.1,0,0.1,0,0.2
				l-0.1,0.7c0,0.2-0.2,0.4-0.3,0.4l-0.5,0.3c-0.1,0-0.1,0-0.2,0.1l-0.8,0.1l-0.3,0.1l-0.2,0.5l-0.2,0.6l-0.5,0.9l-0.5,0.7l-0.4,0.4
				c-0.1,0.1-0.3,0.2-0.4,0.2l-1.4,0c0,0,0,0,0,0c-0.1,0-0.3,0-0.4-0.1l-1-0.7l-0.8-0.9l0,0.9l-0.1,0.9c0,0.1,0,0.1-0.1,0.2
				l-0.5,0.8c0,0.1-0.1,0.1-0.1,0.2l-0.6,0.6c-0.1,0.1-0.2,0.1-0.3,0.1l-0.6,0.1c-0.3,0.1-0.6-0.1-0.7-0.4l-0.2-0.7l-0.3-1.8
				l-0.5-0.6l-0.8-0.2l-2.7,0.1l-0.7,0.2l-0.1,0.2l1,1.5c0.1,0.1,0.1,0.2,0.1,0.4l0,1c0,0.2-0.1,0.4-0.3,0.5l-1.4,0.9
				c0,0-0.1,0.1-0.2,0.1l-4.5,1.3c-0.1,0-0.2,0-0.2,0l-0.7,0c-0.1,0-0.2,0-0.2,0l-0.7-0.3c-0.1,0-0.2-0.1-0.3-0.2l-0.3-0.4l-0.7-1.5
				l0.1-0.2l0,0l-0.4,0.3l-0.4,0.6l-0.3,0.7l-0.4,1.4l-0.8,1.6c0,0.1-0.1,0.1-0.1,0.2l-1,0.9c-0.1,0.1-0.3,0.2-0.5,0.2l-0.8-0.1
				c-0.3,0-0.5-0.2-0.6-0.5l-0.3-1.2l-0.1,0.1l-0.2,0.6l0,1l-0.1,0.7c0,0.1-0.1,0.2-0.1,0.3l-0.3,0.4c0,0.1-0.1,0.1-0.2,0.2
				l-0.6,0.4c-0.1,0-0.1,0.1-0.2,0.1l-0.7,0.1c-0.1,0-0.1,0-0.2,0l-1.6-0.2l-1.3,0l-2.1,1.7c-0.1,0-0.3,0-0.4,0l-0.4-0.1
				c-0.2,0-0.3-0.2-0.4-0.3l-0.1-0.2l-0.6-0.6c-0.2-0.1-0.4-0.4-0.3-0.7l0.1-0.4l0.3-0.6l-0.1-0.1l-0.3,0.1l-0.9,0.7l-0.4,0.5
				l-0.4,1.4l-1,1.1l-0.6,1.8c-0.1,0.2-0.2,0.3-0.3,0.4l-1.4,0.7c-0.1,0-0.2,0.1-0.3,0.1l-1.6,0l-0.1,0l0.1,2.5l-0.4,3.5l-0.4,1.8
				c0,0.1,0,0.1-0.1,0.2l-0.4,0.8c-0.1,0.1-0.2,0.2-0.3,0.3l-1.2,2.4l-3.6,1.3c-0.1,0.1-0.2,0.1-0.3,0.2l-1.7,0.2
				c-0.1,0-0.2,0-0.3,0l-1.3-0.4l-1.2-0.6l-1.1-0.2l-0.4,0.2l0.3,0.6l2.1,1.9c0,0,0.1,0.1,0.1,0.1l1,1.6c0.1,0.2,0.1,0.4,0.1,0.5
				l-0.3,0.8c-0.1,0.3-0.3,0.4-0.6,0.4h-1.1c-0.1,0-0.2,0-0.3-0.1l-1.2-0.7l-0.4,0.2c-0.1,0-0.2,0.1-0.2,0.1l-1.4,0l-0.2,0.1
				l-0.1,0.2l-0.5,2.1c-0.1,0.3-0.4,0.5-0.8,0.5l-1.4-0.3c-0.1,0-0.2-0.1-0.3-0.2l-1.4-1.3l-0.8-0.3l-1,0.4l-0.9,1.2l-0.8,1.3
				c0,0.1-0.1,0.1-0.1,0.2l-2.5,2c-0.1,0-0.1,0.1-0.2,0.1l-0.7,0.2c-0.1,0-0.2,0-0.3,0l-0.8-0.1l-1.4-0.5l-0.5,0l-0.8,0.7l-0.2,1.2
				l-0.4,1.4c-0.1,0.2-0.2,0.4-0.4,0.4l-1.5,0.6c-0.1,0-0.1,0-0.2,0l-0.9,0.1l-0.1,0.1l-0.1,0.5l0.1,2.3c0,0.1,0,0.1,0,0.2l-0.1,0.4
				l-0.5,0.9l-3.2,3.8l-0.3,0.6c-0.1,0.1-0.2,0.2-0.4,0.3l-1.7,0.5l-0.8,0.1c-0.1,0-0.3,0-0.4-0.1l-0.5-0.3
				c-0.1-0.1-0.2-0.1-0.2-0.2l-0.2-0.4l-0.5,0.2l-0.2,0.2l-0.7,1.7c0,0.1-0.1,0.2-0.2,0.2l-0.3,0.3l-1.2,1l-0.2,0.5l-0.1,0.5
				c0,0.1,0,0.1-0.1,0.2l-0.3,0.4c-0.1,0.2-0.2,0.3-0.4,0.3l-0.8,0.2c-0.1,0-0.2,0-0.3,0l-0.9-1c-0.2-0.1-0.4-0.2-0.4-0.5l-0.2-0.6
				c0-0.1,0-0.1,0-0.2l0-0.5l0-0.1l-0.9,0.6l-0.5,0.6l-0.4,1.1c0,0-0.1,0.2-0.1,0.2c0,0.1-0.1,0.1-0.1,0.2l-0.6,0.7l-0.8,0.5
				l-2.9,2.8c-0.1,0.1-0.1,0.1-0.2,0.1l-4.4,1.5l-1.3,1l0.3,0.6l0.7,0.5l1.9,1.2l0.8,0.2l1.1,0.4c0.1,0,0.2,0.1,0.3,0.2l0.7,0.9
				l1.8,2.1c0.1,0.1,0.1,0.3,0,0.4l-1,3.7l-0.5,1.2l-0.8,1.1c0,0-0.1,0.1-0.1,0.1l-0.8,0.6c-0.2,0.1-0.4,0.2-0.6,0.1l-0.6-0.3
				c-0.2-0.1-0.4-0.3-0.4-0.5l-0.2-1.4l-0.9-1.2l-2.3-0.6l-2.8-0.3l-2-0.5l-2.1,1.2l-0.9,0.8l0.3,1.3l0.2,0.6c0,0.1,0,0.2,0,0.2
				l0,3.7l-0.1,0.7c0,0.1-0.1,0.2-0.1,0.3l-0.3,0.4c0,0-0.1,0.1-0.1,0.1l-0.6,0.4c0,0-0.1,0.1-0.1,0.1l-0.6,0.2l-2.3,0.3l-1.8,0.9
				l-1.4,0.6l-0.5,0.7l-0.1,1.3l0.2,1.3l-0.1,3.2c0,0.1,0,0.2-0.1,0.4l-1.3,1.8c0,0.1-0.1,0.1-0.1,0.1l-4.3,3l-6.4,8.3
				c0,0.1-0.1,0.1-0.2,0.1l-2.4,1.6c-0.1,0-0.2,0.1-0.2,0.1l-3.3,0.6l-1.1,0.5l-0.5,0.9l-1.2,6.7c0,0.1,0,0.2-0.1,0.3l-1.5,2.8
				c-0.1,0.1-0.1,0.2-0.2,0.2l-3.9,2l-1.2,2l-0.1,3.1l-0.3,1.6c0,0.1,0,0.1-0.1,0.2l-0.9,1.5c-0.1,0.1-0.1,0.2-0.2,0.2l-1.1,0.7
				c0,0-0.1,0.1-0.2,0.1l-5.6,2l-2.3,1.2l-2.4,1.7l-2.2,3l-1,2.7l-0.4,1l-0.3,0.2l-0.1,0.9l-0.4,0.9c0.1,0.2,0.1,0.4,0,0.5l0.1,2.3
				l-1.1,3.3l-0.9,1.4l-1.3,1.2l-1,0.7l-2.6,1.3l-0.6,0.4l-0.4,0.4l-0.6,0.3l-0.1,0.7l0,0.8l-0.1,0.8c0,0.2-0.1,0.4-0.3,0.5l0.5,0.6
				l-0.5,0.7l-0.3,0.9l-0.1,0.7l-1.3,0.9c0.7,0.6-1.5,1.5-1.5,1.5l-5.3,3.3l-0.4,1c0,0,0,0.1-0.1,0.1l-0.6,0.7l-2.8,2.3l-0.8,1
				l-0.9,2.6c0,0.1-0.1,0.2-0.1,0.2l-2,2.1l-0.3,0.7l-0.6,0.9l-5.2,5.6L109,376c-0.1,0.1-0.1,0.1-0.2,0.1l-1.4,0.5
				c-0.1,0-0.1,0-0.2,0l-3.1,0.1l-1.4,0.5l-3.1,1.5l-2.2,1.9l-1.6,2l-0.9,9c0,0.1,0,0.1,0,0.2l-0.4,1.2c0,0.1-1.6,2.5-1.7,2.6
				l-4.6,2.4l-6.5,8.3c0,0-0.1,0.1-0.1,0.1l-3,2.1l-1.5,0.6l-1.9,0.3l0.9,0.8c0.1,0.1,0.1,0.2,0.2,0.3l1.3,4l1.9,1.3l1.5,0.1l3-0.5
				l1.8,0c0.1,0,0.2,0,0.3,0.1l0.9,0.5c0.1,0,0.2,0.1,0.2,0.2l0.9,1.4l0.6,0.2l0.4-0.2l1.5-1.4c0,0,0.1-0.1,0.1-0.1l0.9-0.4
				c0.1,0,0.2-0.1,0.3-0.1l1.4,0.1c0.1,0,0.2,0,0.3,0.1l0.9,0.6l0.8,0.7l0.7,0.3l0.2-0.1l0.8-0.9c0.1-0.1,0.1-0.1,0.2-0.2l0.4-0.2
				c0.2-0.1,0.4-0.1,0.6,0l0.6,0.3c0.1,0,0.1,0.1,0.2,0.1l0.9,0.9l1.9-0.4l1.8-1.4l1.3-2.1l0.4-2.4l0.5-2.1c0-0.1,0-0.1,0.1-0.2
				l1.5-2.6l2-2.4c0,0,0.1-0.1,0.1-0.1l1.8-1.2c0.1-0.1,0.3-0.1,0.4-0.1l0.7,0.1c0.1,0,0.2,0,0.2,0.1l1.2,0.6l0.4,0l1.8-0.9l2.7-0.5
				l1.5-0.1c0,0,0.1,0,0.2,0l3.2,0.9l2.5-0.4l2.7-0.1c0.2,0,0.3,0,0.4,0.1l2.5,1.7c0.1,0,0.1,0.1,0.2,0.2l1.3,2.2l0.6,0.7l4.3,2.9
				l2.1,1l1.3,0.9l1.1,1.1c0,0,0.1,0.1,0.1,0.1l0.6,1.1c0,0.1,0.1,0.1,0.1,0.2l0.2,1.6c0,0.1,0,0.2,0,0.2l-0.2,0.7l0,0.1l0.8,0.5
				l0.5,0.1l0.6,0l0.8,0.1c0.1,0,0.2,0,0.3,0.1l0.8,0.5c0.1,0,0.1,0.1,0.1,0.1l0.4,0.4l0.7,1.1l2.5,2.9l0.8,0.6l1.2,1.1l3.6,2.3
				l1.3,1.3l1.8,3l1,1.3l0.8,0.7l3.1,1.7l4.2,3.5l2.2,1.1c0.1,0,0.1,0.1,0.2,0.1l1.4,1.3l2.3,2.7c0,0,0.1,0.1,0.1,0.1l0.4,0.9l0.2,1
				l0.2,0.5l0.7,0.6l1.3,0.8l0.7,0.7l0.5,0.8l2.4,4.6l1,1.2l4.5,3.6c0.1,0.1,0.1,0.1,0.2,0.2l1.1,2.2c0,0.1,0,0.1,0.1,0.2l0.4,2.4
				c0,0.1,0,0.1,0,0.2l-0.3,2.4c0,0.1,0,0.1-0.1,0.2l-1.2,2.1l-0.3,1.6l0,5.2l-0.4,3.8l0,1.5l0.4,0.7l1.4-0.2l4.6,0.3l2.1-0.4l1.8,0
				l0.4-0.1l0.4-0.3l1-1.4c0,0,0.1-0.1,0.1-0.1l3.8-2.5l0.8-0.8l0.5-1.1l0.7-2.7c0-0.1,0.1-0.2,0.1-0.2l0.9-1.1
				c0.1-0.1,0.2-0.2,0.4-0.2l1.3-0.2c0.1,0,0.1,0,0.2,0l1.7,0.4l1.2,0.1l0.5-0.5l0.1-1.3l-0.2-3.2c0-0.1,0-0.1,0-0.2l0.3-1.4
				c0-0.1,0.1-0.2,0.2-0.3l1.1-1.1c0.1-0.1,0.2-0.1,0.3-0.2l1.5-0.3c0.1,0,0.2,0,0.3,0l1.5,0.4c0.1,0,0.2,0.1,0.3,0.2l1.9,2.2
				l2.5,1.4l1.2,1l1.6,2l3.2,2.8l5.2,5.9l1.1,1.6c0,0.1,0.1,0.1,0.1,0.2l0.4,1.3l0.3,3l0.4,1.1l0.7,0.7l2.2,1.4
				c0.1,0,0.1,0.1,0.2,0.2l0.8,1.3c0,0,0.1,0.1,0.1,0.2l0.9,3.4l0.5,1.3l1,1.1l1.1,0.7l2.6,1l1.4,0.9l3.4,3.1l1.2,0.7l0.7,0.1
				l0.6-0.3l0.8-1.2l1.3-2.5c0.1-0.1,0.2-0.3,0.4-0.3l0.9-0.3c0.2-0.1,0.5,0,0.7,0.2l1.3,1.5l1.2,2l1.8,2.3l1.9,1.9l2.7,1.3
				c0.1,0,0.1,0.1,0.2,0.1l0.9,0.9l0.9,1.1l0.8,0.8l0.8,0.5l2,0.8l11.4,1.6l2.3,0c0,0,0,0,0,0c0.1,0,0.1,0,0.2,0l1.1,0.3
				c0.1,0,0.2,0.1,0.3,0.2l0.9,0.9c0,0,0.1,0.1,0.1,0.2l1.2,2.6l0.7,0.9l3.6,2.9l1.1,1.1l0.9,1.6c0,0,0.1,0.1,0.1,0.2l0.3,1.4
				l0.1,3.3l0.9,2.2l1.8,1.7l2.2,1.6l2.2,2l2.2,2.5l4.8,4.4l3.8,2.7l3.5,3.3l1.4,1l0.3,0l0.5-0.6l1.3-1.3c0.1-0.1,0.1-0.1,0.2-0.1
				l1.3-0.5c0.1,0,0.2-0.1,0.3,0l1.4,0.1c0.1,0,0.1,0,0.2,0l1.3,0.6l1.3,1c0,0,0.1,0.1,0.1,0.1l0.4,0.6l0.6,1.2l0.5,0.4l0.5,0.2
				l2.2,0.2l1.3,0.4l1.1,0.5l2.1,1.4l0.9,1c0.1,0.1,0.1,0.1,0.1,0.2l0.3,0.8l0.2,0.9l0.3,0.7l0.7,0.8l0.8,0.7l1.8,1.1l4,0.8
				c0.1,0,0.1,0,0.2,0.1l1,0.6c0.1,0.1,0.2,0.2,0.3,0.3l0.4,1.1c0,0.1,0,0.1,0,0.2l0.1,2.8l2,4.7l3.5,5.1l0.9,2.4l0.5,2.9l0.2,4.2
				l0.3,1.2l0.5,0.9l1.7,1.5l0.8,1.1l1.2,2.2l1.4,1.9l1.6,1.6l4.3,3l4.1,4.6l3.8,1.3l3.1,1.9l1,0.3l2.2,0c0.1,0,0.2,0,0.3,0.1
				l2.3,1.4l2.2,1l1.2,0.8l4.7,5.1c0,0,0.1,0.1,0.1,0.1l0.6,1.2c0.1,0.1,0.1,0.3,0.1,0.4l-0.2,1.5c0,0.1-0.1,0.2-0.1,0.3l-0.9,1.2
				c0,0-0.1,0.1-0.1,0.1l-2.5,2l-2.7,3.5c0,0-0.1,0.1-0.1,0.1l-4.7,3.4l-1.8,1.9l-0.5,1.3l-0.2,3l-0.5,1.7c0,0.1-0.1,0.2-0.1,0.2
				l-0.8,0.9c0,0-0.1,0.1-0.1,0.1l-8.5,5.7l-2.3,2l-1.8,2.5l-1.7,5.7l0.1,6l1.5,12.4l-1.6,13.9l-0.2,7.2l1.7,3h1.1l1.1-0.2l1.3,0
				c0.1,0,0.3,0,0.4,0.1l1.1,0.8c0.1,0.1,0.2,0.1,0.2,0.2l0.7,1.4l0.5,1.4l0.6,0.6l1.8-0.1l7.7-5.3l5-4.7l7.2-7.7l12-10.4l7.1-6.7
				l5.2-6l6.9-9.3l1.6-2.8l10.5-24.9l1.9-9.4l4.8-15.5l8.6-17.9l1.8-2.7c0,0,0.1-0.1,0.1-0.1l7.1-6c0.1,0,0.1-0.1,0.2-0.1l2.1-0.8
				v-0.5l-0.7-2.5c0-0.1,0-0.1,0-0.2l0.1-1.3l0.2-0.8l-1.9,2.3c-0.1,0.1-0.2,0.2-0.3,0.2l-1.2,0.3c-0.3,0.1-0.6-0.1-0.7-0.3
				l-0.9-1.8c-0.1-0.2-0.1-0.5,0.1-0.7l1.4-1.7l-1.5,0.9c0,0-0.1,0-0.2,0.1l-2.2,0.6c-0.1,0-0.2,0-0.3,0l-1.7-0.4
				c-0.3-0.1-0.4-0.3-0.5-0.5c0-0.3,0.1-0.5,0.3-0.6l1.5-0.9l0-0.1l-0.7-0.3l-1.9,0.2c-0.2,0.1-0.4-0.1-0.6-0.2
				c-0.1-0.2-0.2-0.4-0.1-0.6l0.5-1.3l0.2-1.4l0.2-3c0-0.1,0-0.1,0-0.2l0.6-1.3c0.1-0.1,0.1-0.2,0.3-0.3l1.3-0.8l0.8,0.1l1.1-0.7
				l0.8-0.4c0.1,0,0.3-0.1,0.4,0l1.5,0.4l0.1,0l0.1-0.3l-0.1-0.3l-0.7-0.8l-0.4-0.2l-1.4-0.3c-0.1,0-0.2,0-0.2-0.1l-0.3-0.2
				c-0.1-0.1-0.2-0.1-0.2-0.2l-0.2-0.4l-1.3-1.6l-0.6-0.1c-0.3,0.1-0.7,0-0.8-0.2l-0.9-1.4c-0.1-0.1-0.1-0.3-0.1-0.4l0.2-1.7
				c0-0.3,0.3-0.6,0.6-0.6l0.8,0l0-0.4c0-0.1,0-0.2,0.1-0.2l0.4-0.8l0.4-0.7l0.1-0.5l-0.1-0.3l-0.7-1.5l-0.2-1.1c0-0.1,0-0.2,0-0.2
				l0.4-1.8c0-0.1,0.1-0.2,0.2-0.3l1-1.1c0.1-0.1,0.1-0.1,0.2-0.1l7.6-3l1.1-0.7l0.9-1.2l0.9-1.7l-0.3-0.7l-0.2-0.6l-0.7-0.1
				l-0.9,0.3c-0.1,0-0.3,0-0.5,0l-0.8-0.3c-0.2-0.1-0.4-0.3-0.4-0.5l-0.3-2.3c0-0.1,0-0.2,0-0.2l0.2-0.8c0-0.1,0.1-0.1,0.1-0.2
				l0.5-0.7c0.1-0.1,0.1-0.1,0.2-0.2l0.7-0.4c0.2-0.1,0.3-0.1,0.5,0l0.7,0.2c0.1,0,0.1,0.1,0.2,0.1l0.7,0.5l0.4,0.2
				c0.1,0,0.1,0,0.2,0.1l0.4,0.3c0.1,0,0.1,0.1,0.2,0.2l0.5,0.9c0,0,0,0.1,0.1,0.2l0.9-0.1l0.3,2.1l0.4,1l0-0.2l1.1-4l-0.1-0.4
				l-0.8-1.1c0-0.1-0.1-0.1-0.1-0.2l-0.3-0.9c0-0.1,0-0.1,0-0.2v-1l0.4-1.8l0.1-0.9l-0.2-5.3l0.2-1.7l0.4-1.1c0-0.1,0.1-0.1,0.1-0.2
				l0.4-0.5l2.7-2.2L469,504c-0.1-0.1-0.2-0.1-0.3-0.2l-0.4-0.8c-0.1-0.1-0.1-0.2-0.1-0.3l0-0.8c0-0.2,0.1-0.5,0.4-0.6l0.7-0.3
				l0.9-0.2l0.4-0.4l0.3-0.5l0.4-0.5c0.1-0.1,0.3-0.2,0.5-0.2l1.4,0l1.9,0.4l0.9,0l1-2c0.1-0.1,0.1-0.2,0.3-0.3l1.4-0.8
				c0,0,0.1,0,0.1-0.1l1.6-0.4l1.3-0.1l3.1,0.3l1.4-0.2l1.2-0.7l0.7-0.3c0.1-0.1,0.3-0.1,0.4-0.1l0.7,0.1l1.4,0.4l0.3-0.1l-0.5-0.6
				c-0.1-0.1-0.1-0.2-0.1-0.4l-0.1-2.7l0.6-3.3c0-0.1,0-0.1,0.1-0.2l1.4-2.6c0.1-0.1,0.2-0.2,0.3-0.3l2.3-1.1c0.1,0,0.1,0,0.2,0
				l1.5-0.2l7.9-2.8l-2.1-1.5c-0.1-0.1-0.1-0.1-0.1-0.2l-0.9-3.3l-0.1-3.9l0.6-3.7l1.4-1.8c0-0.1,0.1-0.1,0.1-0.2l0.9-1
				c0.1-0.1,0.2-0.1,0.3-0.2l1.3-0.5c0.1,0,0.1,0,0.2,0l0.2-0.1l2.7,0.3l0.2-0.2l0-1.7l-0.3-1.7l-0.9-3l-0.2-1.5l1.4-9.6
				c0-0.1,0-0.1,0-0.2l0.4-1.3c0.1-0.2,0.2-0.3,0.4-0.4l1.3-0.6c0.1,0,0.2-0.1,0.3,0l1.8,0.1c0.1,0,0.2,0,0.3,0.1l0.7,0.5
				c0.1,0.1,0.2,0.2,0.3,0.4l0.6,3.4l1.6,4.5c0,0,0,0.1,0,0.2l0.1,2.2c0,0.3-0.2,0.6-0.5,0.6l-0.9,0.2l0.5,0.8l0.4,0l0.5-0.8
				l0.3-1.9l-0.2-1.6l-1.3-5.2l-0.3-3.7l0.2-3.5l0.6-3.4l1.9-6.3l1.5-3c0-0.1,0.1-0.1,0.1-0.2l2-2.1c0.1-0.1,0.2-0.2,0.4-0.2
				l2.7-0.4c0.1,0,0.2,0,0.3,0l0.6,0.3c0.1,0,0.1,0.1,0.1,0.1l0.9,0.7l0.4-0.1l0.7-0.4l0.5-0.5l0.2-0.5l0.3-1.5l0.3-0.9l-0.9,0.1
				l-3.5,2c-0.1,0-0.2,0.1-0.3,0l-1.5-0.2c-0.2,0-0.4-0.2-0.5-0.4l-0.6-2.6c0-0.1,0-0.1,0-0.2l0.1-2.3l-0.1-0.9l-1.1,1.9l-0.7,0.6
				c-0.1,0.1-0.3,0.1-0.5,0.1c-0.2,0-0.3-0.2-0.4-0.3l-0.6-1l-2.1-0.7c-0.1,0-0.2-0.1-0.3-0.3l-0.8-1.3c-0.1-0.2-0.1-0.5,0.1-0.8
				l1.6-1.8l-1-1.5l-0.4,0.1l-1.2,0.3l-0.8,0.1c-0.2,0.1-0.5-0.1-0.6-0.3c-0.1-0.2-0.1-0.5,0-0.7l1.2-2.8l0.1-0.6l-0.1-0.8l-0.2-0.8
				l-0.1-0.9c0-0.1,0-0.2,0-0.3l0.3-0.7l0.5-0.8l0.2-0.6l0-1.7l0.1-0.5l0.4-0.9l-0.5-0.3c-0.1-0.1-0.2-0.2-0.3-0.3l-0.2-0.5
				c0-0.1,0-0.3,0-0.4l0.2-0.6l1.2-2.5l0.1-0.7l-0.1-0.6c0-0.1,0-0.2,0-0.3l0.1-0.4c0.1-0.2,0.2-0.4,0.5-0.4l0.8-0.2
				c0.3,0,0.5,0,0.6,0.2l0.7,0.7c0.1,0.1,0.2,0.3,0.2,0.5l0,1.5l0.1,0.2l0.8-0.3c0.2-0.1,0.4,0,0.6,0.1c0.2,0.1,0.3,0.3,0.3,0.6
				l-0.1,1.5l-0.8,2.7l0,1l0.3,0.5l0.8,0.6l0.9,1c0.1,0.1,0.1,0.2,0.1,0.3l0.2,1.6c0,0.1,0,0.2,0,0.3l-0.3,0.7
				c0,0.1-0.1,0.1-0.1,0.2l-0.9,1h0l0.5-0.1c0.1,0,0.2,0,0.2,0l0.6,0.1l2.2,0.8c0.1,0,0.2,0.1,0.3,0.2l0.6,0.7
				c0.1,0.2,0.2,0.4,0.1,0.6l-0.2,0.8l2.1,1.6l0.7,0.4l0.2-0.3c0.1-0.1,0.1-0.1,0.2-0.2l0.8-0.4l1.8-0.5c0.1,0,0.2,0,0.3,0l1.5,0.3
				c0.2,0,0.4,0.2,0.5,0.5l0.2,1.2l0.4-0.3c0.2-0.2,0.5-0.2,0.7,0l0.8,0.5c0.1,0.1,0.2,0.1,0.2,0.2l0.6,1.2c0,0.1,0,0.1,0.1,0.2
				l0.2,1.4c0,0.1,0,0.2,0,0.2l-0.2,0.7c0,0.1-0.1,0.2-0.1,0.2l-1.3,1.7L534,422l0.1,1l0.3,1.1l0.6,0.4l1.1,0.3l1.4,0.6
				c0.1,0,0.1,0.1,0.2,0.1l3.2,2.8l0.2,0l-0.7-1.9l-0.2-1.6l0.3-2.3l0.4-1.8l0.8-1.5c0.1-0.1,0.2-0.2,0.3-0.3l1.1-0.5
				c0.2-0.1,0.4-0.1,0.5,0l1.4,0.7l1-0.2c0.1,0,0.1,0,0.2,0l3.5,0.4l0.3-1.1c0-0.1,0.1-0.3,0.2-0.4l1-0.7c0.1-0.1,0.2-0.1,0.3-0.1
				l1.3-0.1l4.6,0.2l1.3-0.3l0.6-0.9l0.4-0.9l0.1-0.6l-0.2-0.5l-0.6-0.5l-0.4-0.2c-0.1-0.1-0.2-0.2-0.3-0.3l-0.1-0.3
				c-0.1-0.1-0.1-0.3-0.1-0.4l0.2-0.8c0-0.2,0.2-0.4,0.5-0.5h0l1.5-2c0.1-0.1,0.1-0.1,0.2-0.2l0.8-0.4c0.1,0,0.1,0,0.2-0.1l0.8-0.1
				c0.1,0,0.2,0,0.3,0l0.8,0.2c0.1,0,0.1,0.1,0.2,0.1l0.8,0.6c0.1,0,0.1,0.1,0.2,0.2l0.4,0.7l2.3,0.4l0.2,0.2l2.5,1.5
				c0.1,0.1-1.3,1.7-1.2,1.9l0.4,1.3l0.2,2.2l0,2.2l-1.3,4.9c0,0.1,0,0.1-0.1,0.2l-0.9,1.4l-0.2,0.7l0.4,1.8l0.1,1.4
				c0,0.1,0,0.3-0.1,0.4l-0.5,0.9c0,0.1-0.1,0.1-0.2,0.2l-2.5,1.9c-0.2,0.2-0.6,0.2-0.8,0l-1.1-0.9l-1.2-1.4l-0.9-1.6
				c0,0,0-0.1-0.1-0.2l-0.3-1.5c0-0.1,0-0.2,0-0.3l0.2-0.6c0-0.1,0-0.1,0.1-0.2l0.5-0.7l0-0.1l-2-1.9l-0.9-1.1l-0.2-0.1l-0.6,0.2
				L556,424l0.3,0.5c0,0,0,0.1,0.1,0.2l0.5,2.4l1.3,2.9l0.4,1.5l0.7,14.5l-0.9,7c0,0.1,0,0.1-0.1,0.2l-2.7,5.3c0,0-0.1,0.1-0.1,0.1
				l-0.9,0.9l-1.2,1l-1.5,0.8c0,0-0.1,0-0.2,0.1l-2.6,0.6l-4.4,5.1c0,0-0.1,0.1-0.1,0.1l-1.3,0.6c-0.1,0-0.1,0-0.2,0.1l-1.8,0.2
				l-0.9-0.1c-0.1,0-0.1,0-0.2,0l-0.8-0.4l0.1,0.2l1,1.4c0.1,0.1,0.1,0.3,0.1,0.4l-1,2.8c0,0.1,0,0.1,0,0.2l-1.2,3.4l-0.6,2.7l1,1.9
				l0.3,0.1l0.7-0.1c0,0,0.1,0,0.2,0l0.6,0.1c0.2,0,0.4,0.2,0.5,0.4l0.3,0.9c0.1,0.2,0,0.5-0.2,0.6l-0.4,0.3
				c-0.1,0.1-0.1,0.1-0.2,0.1l-0.8,0.3l-0.5,0.3l-0.3,0.6l-0.1,0.8c0,0.1,0,0.1-0.1,0.2l-0.3,0.6c0,0.1-0.1,0.2-0.2,0.3l-0.5,0.3
				c-0.1,0-0.2,0.1-0.2,0.1l-0.8,0.1c-0.1,0-0.2,0-0.4,0l-0.6-0.3c-0.2-0.1-0.3-0.2-0.3-0.4l-0.2-0.7l-0.1-4.3l-0.2-0.3l-0.9-0.1
				l-0.9,0.2l-2,1.1c-0.1,0-0.1,0-0.2,0.1l-1.3,0.3c-0.1,0-0.2,0-0.3,0l-2.6,1.4l-0.8-0.1l-0.3,0.4l-0.1,1.1l-0.5,1.2l-0.4,1.1
				l1.4,4.9c0,0.1,0,0.1,0,0.2l-0.3,6l-1.5,6l-2.2,4.8l-2.5,4c0,0-0.1,0.1-0.1,0.1l-0.8,0.7l-2.2,1.5l-1,0.9l-2.3,1.5
				c-0.1,0-0.1,0.1-0.2,0.1l-3,0.6c-0.1,0-0.2,0-0.3,0l-2.5-0.7c-0.2-0.1-0.4-0.2-0.4-0.5l-0.4-1.5l-0.1,0.1l-0.8,1.5l-0.7,1.8
				l-0.2,1.2l0.8,3l0.3,1.5c0,0.3-0.1,0.6-0.4,0.7l-0.7,0.2c-0.3,0.1-0.6,0-0.7-0.2l-2-2.7l-0.2,1l-0.5,1.5c0,0.1-0.1,0.2-0.2,0.3
				l-2.2,1.8l-1,2.1c0,0.1-0.1,0.1-0.1,0.2l-7.4,8.3l-2.8,2c-0.1,0.1-0.2,0.1-0.3,0.1l-2.7,0.2l-3-0.2l-2.4,0.5l0.9,1.5
				c0.1,0.2,0.1,0.5,0,0.7l-1.6,2.2c-0.1,0.1-0.2,0.2-0.3,0.2l-3.1,1.3c-0.1,0-0.2,0-0.3,0.1l-3-0.2c-0.1,0-0.2,0-0.3-0.1l-5.5-3.8
				l-2.9-1l-2.2,1.3l0,1.9l4.2,4.8c0,0.1,0.1,0.1,0.1,0.2l1,2.5c0.1,0.2,0,0.4-0.1,0.6l-0.9,1.3c-0.1,0.1-0.1,0.2-0.2,0.2l-1.3,0.7
				l-0.5,0.5l0.7,1.4l0.5,1.6c0,0.1,0,0.2,0,0.3l-0.2,2l-0.6,2l-0.5,1.2l-1.7,3l-0.4,1.6l0.2,0.5l2.3-3.9l10.1-12.8l1.9-1.9
				l21.1-12.7l16.7-14.1l12-10l8.1-8.4l10.5-12.8l3.8-6.2l7.6-8.1l8.8-13.8l0.4-1.6c0-0.1,0-0.1,0.1-0.2l19-31.5L588,420l3.1-9.7
				l11.3-31c0-0.1,0.1-0.1,0.1-0.2l3.3-3.9l4.4-10.3l5.2-8.5l3.4-6.8l6.2-8.6c-0.1,0-0.1,0-0.2-0.1L624.5,340.6z"/>
		</g>
	</g>
</g>
</svg>
